<?xml version="1.0" encoding="utf-8" standalone="no"?>
<!DOCTYPE svg PUBLIC "-//W3C//DTD SVG 1.1//EN"
  "http://www.w3.org/Graphics/SVG/1.1/DTD/svg11.dtd">
<svg xmlns:xlink="http://www.w3.org/1999/xlink" width="513.972pt" height="413.103375pt" viewBox="0 0 513.972 413.103375" xmlns="http://www.w3.org/2000/svg" version="1.1">
 <metadata>
  <rdf:RDF xmlns:dc="http://purl.org/dc/elements/1.1/" xmlns:cc="http://creativecommons.org/ns#" xmlns:rdf="http://www.w3.org/1999/02/22-rdf-syntax-ns#">
   <cc:Work>
    <dc:type rdf:resource="http://purl.org/dc/dcmitype/StillImage"/>
    <dc:date>2026-09-17T20:20:06.175998</dc:date>
    <dc:format>image/svg+xml</dc:format>
    <dc:creator>
     <cc:Agent>
      <dc:title>Matplotlib v3.7.5, https://matplotlib.org/</dc:title>
     </cc:Agent>
    </dc:creator>
   </cc:Work>
  </rdf:RDF>
 </metadata>
 <defs>
  <style type="text/css">*{stroke-linejoin: round; stroke-linecap: butt}</style>
 </defs>
 <g id="figure_1">
  <g id="patch_1">
   <path d="M 0 413.103375
L 513.972 413.103375
L 513.972 -0
L 0 -0
z
" style="fill: #ffffff"/>
  </g>
  <g id="axes_1">
   <g id="patch_2">
    <path d="M 12.423825 335.911275
L 94.1805 335.911275
Q 98.073675 335.911275 98.073675 332.0181
L 98.073675 81.4392
Q 98.073675 77.546025 94.1805 77.546025
L 12.423825 77.546025
Q 8.53065 77.546025 8.53065 81.4392
L 8.53065 332.0181
Q 8.53065 335.911275 12.423825 335.911275
z
" clip-path="url(#p325630dd4d)" style="fill: #ffffff; stroke: #5f6b76; stroke-width: 0.95; stroke-linejoin: miter"/>
   </g>
   <g id="patch_3">
    <path d="M 18.44055 182.66175
L 88.163775 182.66175
Q 92.05695 182.66175 92.05695 178.768575
L 92.05695 122.848425
Q 92.05695 118.95525 88.163775 118.95525
L 18.44055 118.95525
Q 14.547375 118.95525 14.547375 122.848425
L 14.547375 178.768575
Q 14.547375 182.66175 18.44055 182.66175
z
" clip-path="url(#p325630dd4d)" style="fill: #eef4fb; stroke: #2463a5; stroke-width: 0.6; stroke-linejoin: miter"/>
   </g>
   <g id="patch_4">
    <path d="M 18.44055 253.44675
L 88.163775 253.44675
Q 92.05695 253.44675 92.05695 249.553575
L 92.05695 193.633425
Q 92.05695 189.74025 88.163775 189.74025
L 18.44055 189.74025
Q 14.547375 189.74025 14.547375 193.633425
L 14.547375 249.553575
Q 14.547375 253.44675 18.44055 253.44675
z
" clip-path="url(#p325630dd4d)" style="fill: #edf8f6; stroke: #138c8b; stroke-width: 0.6; stroke-linejoin: miter"/>
   </g>
   <g id="patch_5">
    <path d="M 18.44055 324.23175
L 88.163775 324.23175
Q 92.05695 324.23175 92.05695 320.338575
L 92.05695 264.418425
Q 92.05695 260.52525 88.163775 260.52525
L 18.44055 260.52525
Q 14.547375 260.52525 14.547375 264.418425
L 14.547375 320.338575
Q 14.547375 324.23175 18.44055 324.23175
z
" clip-path="url(#p325630dd4d)" style="fill: #f4f0fa; stroke: #66509a; stroke-width: 0.6; stroke-linejoin: miter"/>
   </g>
   <g id="patch_6">
    <path d="M 137.005425 112.938525
L 376.966575 112.938525
Q 380.85975 112.938525 380.85975 109.04535
L 380.85975 24.10335
Q 380.85975 20.210175 376.966575 20.210175
L 137.005425 20.210175
Q 133.11225 20.210175 133.11225 24.10335
L 133.11225 109.04535
Q 133.11225 112.938525 137.005425 112.938525
z
" clip-path="url(#p325630dd4d)" style="fill: #ffffff; stroke: #2463a5; stroke-width: 1.05; stroke-linejoin: miter"/>
   </g>
   <g id="patch_7">
    <path d="M 280.419374 75.139335
L 283.279088 75.139335
Q 283.633013 75.139335 283.633013 74.78541
L 283.633013 69.918941
Q 283.633013 69.565016 283.279088 69.565016
L 280.419374 69.565016
Q 280.065449 69.565016 280.065449 69.918941
L 280.065449 74.78541
Q 280.065449 75.139335 280.419374 75.139335
z
" clip-path="url(#p325630dd4d)" style="fill: #2463a5; stroke: #2463a5; stroke-width: 0.8; stroke-linejoin: miter"/>
   </g>
   <g id="patch_8">
    <path d="M 286.216666 75.139335
L 289.07638 75.139335
Q 289.430305 75.139335 289.430305 74.78541
L 289.430305 65.236514
Q 289.430305 64.882588 289.07638 64.882588
L 286.216666 64.882588
Q 285.862741 64.882588 285.862741 65.236514
L 285.862741 74.78541
Q 285.862741 75.139335 286.216666 75.139335
z
" clip-path="url(#p325630dd4d)" style="fill: #2463a5; stroke: #2463a5; stroke-width: 0.8; stroke-linejoin: miter"/>
   </g>
   <g id="patch_9">
    <path d="M 292.23693 75.139335
L 295.096644 75.139335
Q 295.450569 75.139335 295.450569 74.78541
L 295.450569 60.331113
Q 295.450569 59.977188 295.096644 59.977188
L 292.23693 59.977188
Q 291.883005 59.977188 291.883005 60.331113
L 291.883005 74.78541
Q 291.883005 75.139335 292.23693 75.139335
z
" clip-path="url(#p325630dd4d)" style="fill: #2463a5; stroke: #2463a5; stroke-width: 0.8; stroke-linejoin: miter"/>
   </g>
   <g id="patch_10">
    <path d="M 137.005425 230.0877
L 376.966575 230.0877
Q 380.85975 230.0877 380.85975 226.194525
L 380.85975 129.926925
Q 380.85975 126.03375 376.966575 126.03375
L 137.005425 126.03375
Q 133.11225 126.03375 133.11225 129.926925
L 133.11225 226.194525
Q 133.11225 230.0877 137.005425 230.0877
z
" clip-path="url(#p325630dd4d)" style="fill: #ffffff; stroke: #138c8b; stroke-width: 1.05; stroke-linejoin: miter"/>
   </g>
   <g id="patch_11">
    <path d="M 137.005425 355.731075
L 376.966575 355.731075
Q 380.85975 355.731075 380.85975 351.8379
L 380.85975 247.0761
Q 380.85975 243.182925 376.966575 243.182925
L 137.005425 243.182925
Q 133.11225 243.182925 133.11225 247.0761
L 133.11225 351.8379
Q 133.11225 355.731075 137.005425 355.731075
z
" clip-path="url(#p325630dd4d)" style="fill: #ffffff; stroke: #c57828; stroke-width: 1.05; stroke-linejoin: miter"/>
   </g>
   <g id="patch_12">
    <path d="M 333.504585 283.431276
L 343.272915 283.431276
Q 345.226581 283.431276 345.226581 281.47761
L 345.226581 275.291001
Q 345.226581 273.337335 343.272915 273.337335
L 333.504585 273.337335
Q 331.550919 273.337335 331.550919 275.291001
L 331.550919 281.47761
Q 331.550919 283.431276 333.504585 283.431276
z
" clip-path="url(#p325630dd4d)" style="fill: #ffffff; stroke: #66509a; stroke-width: 0.8; stroke-linejoin: miter"/>
   </g>
   <g id="patch_13">
    <path d="M 412.00515 230.441625
L 499.424625 230.441625
Q 503.3178 230.441625 503.3178 226.54845
L 503.3178 115.769925
Q 503.3178 111.87675 499.424625 111.87675
L 412.00515 111.87675
Q 408.111975 111.87675 408.111975 115.769925
L 408.111975 226.54845
Q 408.111975 230.441625 412.00515 230.441625
z
" clip-path="url(#p325630dd4d)" style="fill: #ffffff; stroke: #138c8b; stroke-width: 0.95; stroke-linejoin: miter"/>
   </g>
   <g id="patch_14">
    <path d="M 412.00515 332.0181
L 499.424625 332.0181
Q 503.3178 332.0181 503.3178 328.124925
L 503.3178 263.002725
Q 503.3178 259.10955 499.424625 259.10955
L 412.00515 259.10955
Q 408.111975 259.10955 408.111975 263.002725
L 408.111975 328.124925
Q 408.111975 332.0181 412.00515 332.0181
z
" clip-path="url(#p325630dd4d)" style="fill: #f4f0fa; stroke: #66509a; stroke-width: 0.95; stroke-linejoin: miter"/>
   </g>
   <g id="patch_15">
    <path d="M 165.319425 390.0618
L 348.652575 390.0618
Q 352.54575 390.0618 352.54575 386.168625
L 352.54575 373.0734
Q 352.54575 369.180225 348.652575 369.180225
L 165.319425 369.180225
Q 161.42625 369.180225 161.42625 373.0734
L 161.42625 386.168625
Q 161.42625 390.0618 165.319425 390.0618
z
" clip-path="url(#p325630dd4d)" style="fill: #ffffff"/>
   </g>
   <g id="line2d_1">
    <path d="M 380.85975 65.15865
L 395.370675 65.15865
L 395.370675 289.901025
" clip-path="url(#p325630dd4d)" style="fill: none; stroke: #2463a5; stroke-linecap: round"/>
   </g>
   <g id="line2d_2">
    <path d="M 216.284625 212.037525
L 216.284625 170.274375
" clip-path="url(#p325630dd4d)" style="fill: none; stroke-dasharray: 2.1,1.4; stroke-dashoffset: 0; stroke: #d8dee4; stroke-width: 0.7"/>
   </g>
   <g id="line2d_3">
    <path d="M 297.687375 212.037525
L 297.687375 170.274375
" clip-path="url(#p325630dd4d)" style="fill: none; stroke-dasharray: 2.1,1.4; stroke-dashoffset: 0; stroke: #d8dee4; stroke-width: 0.7"/>
   </g>
   <g id="line2d_4">
    <path d="M 139.4829 323.169975
L 374.4891 323.169975
" clip-path="url(#p325630dd4d)" style="fill: none; stroke-dasharray: 1.95,1.3; stroke-dashoffset: 0; stroke: #d8dee4; stroke-width: 0.65"/>
   </g>
   <g id="line2d_5">
    <path d="M 424.569487 160.43526
L 446.371267 148.54338
" clip-path="url(#p325630dd4d)" style="fill: none; stroke: #95a4b0; stroke-width: 0.7; stroke-linecap: round"/>
   </g>
   <g id="line2d_6">
    <path d="M 446.371267 148.54338
L 455.714887 169.35417
" clip-path="url(#p325630dd4d)" style="fill: none; stroke: #95a4b0; stroke-width: 0.7; stroke-linecap: round"/>
   </g>
   <g id="line2d_7">
    <path d="M 446.371267 148.54338
L 482.967112 156.4713
" clip-path="url(#p325630dd4d)" style="fill: none; stroke: #95a4b0; stroke-width: 0.7; stroke-linecap: round"/>
   </g>
   <g id="line2d_8">
    <path d="M 482.967112 156.4713
L 455.714887 169.35417
" clip-path="url(#p325630dd4d)" style="fill: none; stroke: #95a4b0; stroke-width: 0.7; stroke-linecap: round"/>
   </g>
   <g id="line2d_9">
    <path d="M 424.569487 160.43526
L 430.798567 182.23704
" clip-path="url(#p325630dd4d)" style="fill: none; stroke: #138c8b; stroke-width: 0.7; stroke-linecap: round"/>
   </g>
   <g id="line2d_10">
    <path d="M 455.714887 169.35417
L 430.798567 182.23704
" clip-path="url(#p325630dd4d)" style="fill: none; stroke: #95a4b0; stroke-width: 0.7; stroke-linecap: round"/>
   </g>
   <g id="line2d_11">
    <path d="M 482.967112 156.4713
L 486.081653 178.768575
" clip-path="url(#p325630dd4d)" style="fill: none; stroke: #95a4b0; stroke-width: 0.7; stroke-linecap: round"/>
   </g>
   <g id="line2d_12">
    <path d="M 455.714887 169.35417
L 460.386697 195.11991
" clip-path="url(#p325630dd4d)" style="fill: none; stroke: #138c8b; stroke-width: 0.7; stroke-linecap: round"/>
   </g>
   <g id="line2d_13">
    <path d="M 430.798567 182.23704
L 460.386697 195.11991
" clip-path="url(#p325630dd4d)" style="fill: none; stroke: #95a4b0; stroke-width: 0.7; stroke-linecap: round"/>
   </g>
   <g id="line2d_14">
    <path d="M 486.081653 178.768575
L 460.386697 195.11991
" clip-path="url(#p325630dd4d)" style="fill: none; stroke: #95a4b0; stroke-width: 0.7; stroke-linecap: round"/>
   </g>
   <g id="line2d_15">
    <path d="M 455.714887 332.0181
L 455.714887 380.1519
L 53.302162 380.1519
" clip-path="url(#p325630dd4d)" style="fill: none; stroke-dasharray: 3,2; stroke-dashoffset: 0; stroke: #138c8b"/>
   </g>
   <g id="patch_16">
    <path d="M 99.070256 199.65015
Q 115.590513 199.65015 130.992736 199.65015
" clip-path="url(#p325630dd4d)" style="fill: none; stroke: #5f6b76; stroke-linecap: round"/>
    <path d="M 127.792736 198.05015
L 130.992736 199.65015
L 127.792736 201.25015
z
" clip-path="url(#p325630dd4d)" style="fill: #5f6b76; stroke: #5f6b76; stroke-linecap: round"/>
   </g>
   <g id="patch_17">
    <path d="M 396.3692 289.901025
Q 401.740315 289.901025 405.993397 289.901025
" clip-path="url(#p325630dd4d)" style="fill: none; stroke: #2463a5; stroke-linecap: round"/>
    <path d="M 402.793397 288.301025
L 405.993397 289.901025
L 402.793397 291.501025
z
" clip-path="url(#p325630dd4d)" style="fill: #2463a5; stroke: #2463a5; stroke-linecap: round"/>
   </g>
   <g id="patch_18">
    <path d="M 256.986 113.940333
Q 256.986 118.956552 256.986 122.854737
" clip-path="url(#p325630dd4d)" style="fill: none; stroke: #2463a5; stroke-linecap: round"/>
    <path d="M 258.586 119.654737
L 256.986 122.854737
L 255.386 119.654737
z
" clip-path="url(#p325630dd4d)" style="fill: #2463a5; stroke: #2463a5; stroke-linecap: round"/>
   </g>
   <g id="patch_19">
    <path d="M 256.986 231.089508
Q 256.986 236.105727 256.986 240.003912
" clip-path="url(#p325630dd4d)" style="fill: none; stroke: #138c8b; stroke-linecap: round"/>
    <path d="M 258.586 236.803912
L 256.986 240.003912
L 255.386 236.803912
z
" clip-path="url(#p325630dd4d)" style="fill: #138c8b; stroke: #138c8b; stroke-linecap: round"/>
   </g>
   <g id="patch_20">
    <path d="M 381.861083 305.473725
Q 394.485032 305.473725 405.990947 305.473725
" clip-path="url(#p325630dd4d)" style="fill: none; stroke: #c57828; stroke-linecap: round"/>
    <path d="M 402.790947 303.873725
L 405.990947 305.473725
L 402.790947 307.073725
z
" clip-path="url(#p325630dd4d)" style="fill: #c57828; stroke: #c57828; stroke-linecap: round"/>
   </g>
   <g id="patch_21">
    <path d="M 455.714887 258.112192
Q 455.714887 244.778505 455.714887 232.562852
" clip-path="url(#p325630dd4d)" style="fill: none; stroke: #138c8b; stroke-linecap: round"/>
    <path d="M 454.114887 235.762852
L 455.714887 232.562852
L 457.314887 235.762852
z
" clip-path="url(#p325630dd4d)" style="fill: #138c8b; stroke: #138c8b; stroke-linecap: round"/>
   </g>
   <g id="patch_22">
    <path d="M 53.302162 379.150113
Q 53.302162 358.030802 53.302162 338.029524
" clip-path="url(#p325630dd4d)" style="fill: none; stroke-dasharray: 3,2; stroke-dashoffset: 0; stroke: #138c8b; stroke-linecap: round"/>
    <path d="M 51.702162 341.229524
L 53.302162 338.029524
L 54.902162 341.229524
z
" clip-path="url(#p325630dd4d)" style="fill: #138c8b; stroke-dasharray: 3,2; stroke-dashoffset: 0; stroke: #138c8b; stroke-linecap: round"/>
   </g>
   <g id="patch_23">
    <path d="M 424.569487 168.22161
C 426.634452 168.22161 428.615118 167.401191 430.075268 165.941041
C 431.535419 164.480891 432.355838 162.500224 432.355838 160.43526
C 432.355838 158.370296 431.535419 156.389629 430.075268 154.929479
C 428.615118 153.469329 426.634452 152.64891 424.569487 152.64891
C 422.504523 152.64891 420.523857 153.469329 419.063707 154.929479
C 417.603556 156.389629 416.783137 158.370296 416.783137 160.43526
C 416.783137 162.500224 417.603556 164.480891 419.063707 165.941041
C 420.523857 167.401191 422.504523 168.22161 424.569487 168.22161
z
" clip-path="url(#p325630dd4d)" style="fill: #ffffff; stroke: #2463a5; stroke-width: 0.7; stroke-linejoin: miter"/>
   </g>
   <g id="patch_24">
    <path d="M 446.371267 156.32973
C 448.436232 156.32973 450.416898 155.509311 451.877048 154.049161
C 453.337199 152.589011 454.157618 150.608344 454.157618 148.54338
C 454.157618 146.478416 453.337199 144.497749 451.877048 143.037599
C 450.416898 141.577449 448.436232 140.75703 446.371267 140.75703
C 444.306303 140.75703 442.325637 141.577449 440.865487 143.037599
C 439.405336 144.497749 438.584917 146.478416 438.584917 148.54338
C 438.584917 150.608344 439.405336 152.589011 440.865487 154.049161
C 442.325637 155.509311 444.306303 156.32973 446.371267 156.32973
z
" clip-path="url(#p325630dd4d)" style="fill: #ffffff; stroke: #2463a5; stroke-width: 0.7; stroke-linejoin: miter"/>
   </g>
   <g id="patch_25">
    <path d="M 482.967112 164.25765
C 485.032077 164.25765 487.012743 163.437231 488.472893 161.977081
C 489.933044 160.516931 490.753463 158.536264 490.753463 156.4713
C 490.753463 154.406336 489.933044 152.425669 488.472893 150.965519
C 487.012743 149.505369 485.032077 148.68495 482.967112 148.68495
C 480.902148 148.68495 478.921482 149.505369 477.461332 150.965519
C 476.001181 152.425669 475.180762 154.406336 475.180762 156.4713
C 475.180762 158.536264 476.001181 160.516931 477.461332 161.977081
C 478.921482 163.437231 480.902148 164.25765 482.967112 164.25765
z
" clip-path="url(#p325630dd4d)" style="fill: #ffffff; stroke: #138c8b; stroke-width: 0.7; stroke-linejoin: miter"/>
   </g>
   <g id="patch_26">
    <path d="M 455.714887 177.14052
C 457.779852 177.14052 459.760518 176.320101 461.220668 174.859951
C 462.680819 173.399801 463.501238 171.419134 463.501238 169.35417
C 463.501238 167.289206 462.680819 165.308539 461.220668 163.848389
C 459.760518 162.388239 457.779852 161.56782 455.714887 161.56782
C 453.649923 161.56782 451.669257 162.388239 450.209107 163.848389
C 448.748956 165.308539 447.928537 167.289206 447.928537 169.35417
C 447.928537 171.419134 448.748956 173.399801 450.209107 174.859951
C 451.669257 176.320101 453.649923 177.14052 455.714887 177.14052
z
" clip-path="url(#p325630dd4d)" style="fill: #ffffff; stroke: #2463a5; stroke-width: 0.7; stroke-linejoin: miter"/>
   </g>
   <g id="patch_27">
    <path d="M 430.798567 190.02339
C 432.863532 190.02339 434.844198 189.202971 436.304348 187.742821
C 437.764499 186.282671 438.584918 184.302004 438.584918 182.23704
C 438.584918 180.172076 437.764499 178.191409 436.304348 176.731259
C 434.844198 175.271109 432.863532 174.45069 430.798567 174.45069
C 428.733603 174.45069 426.752937 175.271109 425.292787 176.731259
C 423.832636 178.191409 423.012217 180.172076 423.012217 182.23704
C 423.012217 184.302004 423.832636 186.282671 425.292787 187.742821
C 426.752937 189.202971 428.733603 190.02339 430.798567 190.02339
z
" clip-path="url(#p325630dd4d)" style="fill: #ffffff; stroke: #138c8b; stroke-width: 0.7; stroke-linejoin: miter"/>
   </g>
   <g id="patch_28">
    <path d="M 486.081653 186.554925
C 488.146617 186.554925 490.127283 185.734506 491.587433 184.274356
C 493.047584 182.814206 493.868003 180.833539 493.868003 178.768575
C 493.868003 176.703611 493.047584 174.722944 491.587433 173.262794
C 490.127283 171.802644 488.146617 170.982225 486.081653 170.982225
C 484.016688 170.982225 482.036022 171.802644 480.575872 173.262794
C 479.115721 174.722944 478.295302 176.703611 478.295302 178.768575
C 478.295302 180.833539 479.115721 182.814206 480.575872 184.274356
C 482.036022 185.734506 484.016688 186.554925 486.081653 186.554925
z
" clip-path="url(#p325630dd4d)" style="fill: #ffffff; stroke: #2463a5; stroke-width: 0.7; stroke-linejoin: miter"/>
   </g>
   <g id="patch_29">
    <path d="M 460.386697 202.90626
C 462.451662 202.90626 464.432328 202.085841 465.892478 200.625691
C 467.352629 199.165541 468.173047 197.184874 468.173047 195.11991
C 468.173047 193.054946 467.352629 191.074279 465.892478 189.614129
C 464.432328 188.153979 462.451662 187.33356 460.386697 187.33356
C 458.321733 187.33356 456.341067 188.153979 454.880917 189.614129
C 453.420766 191.074279 452.600347 193.054946 452.600347 195.11991
C 452.600347 197.184874 453.420766 199.165541 454.880917 200.625691
C 456.341067 202.085841 458.321733 202.90626 460.386697 202.90626
z
" clip-path="url(#p325630dd4d)" style="fill: #ffffff; stroke: #138c8b; stroke-width: 0.7; stroke-linejoin: miter"/>
   </g>
   <g id="line2d_16">
    <path d="M 22.40451 136.686892
L 32.88069 136.686892
" clip-path="url(#p325630dd4d)" style="fill: none; stroke: #2463a5; stroke-linecap: round"/>
   </g>
   <g id="line2d_17">
    <path d="M 22.40451 136.686892
L 27.6426 128.174996
L 32.88069 136.686892
" clip-path="url(#p325630dd4d)" style="fill: none; stroke: #2463a5; stroke-linecap: round"/>
   </g>
   <g id="patch_30">
    <path d="M 22.40451 137.996415
C 22.751799 137.996415 23.084912 137.858435 23.330482 137.612865
C 23.576053 137.367294 23.714032 137.034182 23.714032 136.686892
C 23.714032 136.339603 23.576053 136.006491 23.330482 135.76092
C 23.084912 135.51535 22.751799 135.37737 22.40451 135.37737
C 22.057221 135.37737 21.724108 135.51535 21.478538 135.76092
C 21.232967 136.006491 21.094987 136.339603 21.094987 136.686892
C 21.094987 137.034182 21.232967 137.367294 21.478538 137.612865
C 21.724108 137.858435 22.057221 137.996415 22.40451 137.996415
z
" clip-path="url(#p325630dd4d)" style="fill: #2463a5; stroke: #2463a5; stroke-width: 0.8; stroke-linejoin: miter"/>
   </g>
   <g id="patch_31">
    <path d="M 27.6426 129.484519
C 27.989889 129.484519 28.323002 129.346539 28.568572 129.100968
C 28.814143 128.855398 28.952122 128.522286 28.952122 128.174996
C 28.952122 127.827707 28.814143 127.494595 28.568572 127.249024
C 28.323002 127.003453 27.989889 126.865474 27.6426 126.865474
C 27.295311 126.865474 26.962198 127.003453 26.716628 127.249024
C 26.471057 127.494595 26.333077 127.827707 26.333077 128.174996
C 26.333077 128.522286 26.471057 128.855398 26.716628 129.100968
C 26.962198 129.346539 27.295311 129.484519 27.6426 129.484519
z
" clip-path="url(#p325630dd4d)" style="fill: #2463a5; stroke: #2463a5; stroke-width: 0.8; stroke-linejoin: miter"/>
   </g>
   <g id="patch_32">
    <path d="M 32.88069 137.996415
C 33.227979 137.996415 33.561092 137.858435 33.806662 137.612865
C 34.052233 137.367294 34.190213 137.034182 34.190213 136.686892
C 34.190213 136.339603 34.052233 136.006491 33.806662 135.76092
C 33.561092 135.51535 33.227979 135.37737 32.88069 135.37737
C 32.533401 135.37737 32.200288 135.51535 31.954718 135.76092
C 31.709147 136.006491 31.571168 136.339603 31.571168 136.686892
C 31.571168 137.034182 31.709147 137.367294 31.954718 137.612865
C 32.200288 137.858435 32.533401 137.996415 32.88069 137.996415
z
" clip-path="url(#p325630dd4d)" style="fill: #2463a5; stroke: #2463a5; stroke-width: 0.8; stroke-linejoin: miter"/>
   </g>
   <g id="line2d_18">
    <path d="M 22.40451 207.471892
L 27.6426 198.959996
L 32.88069 207.471892
" clip-path="url(#p325630dd4d)" style="fill: none; stroke: #138c8b; stroke-linecap: round"/>
   </g>
   <g id="patch_33">
    <path d="M 22.40451 208.781415
C 22.751799 208.781415 23.084912 208.643435 23.330482 208.397865
C 23.576053 208.152294 23.714032 207.819182 23.714032 207.471892
C 23.714032 207.124603 23.576053 206.791491 23.330482 206.54592
C 23.084912 206.30035 22.751799 206.16237 22.40451 206.16237
C 22.057221 206.16237 21.724108 206.30035 21.478538 206.54592
C 21.232967 206.791491 21.094987 207.124603 21.094987 207.471892
C 21.094987 207.819182 21.232967 208.152294 21.478538 208.397865
C 21.724108 208.643435 22.057221 208.781415 22.40451 208.781415
z
" clip-path="url(#p325630dd4d)" style="fill: #138c8b; stroke: #138c8b; stroke-width: 0.8; stroke-linejoin: miter"/>
   </g>
   <g id="patch_34">
    <path d="M 27.6426 200.269519
C 27.989889 200.269519 28.323002 200.131539 28.568572 199.885968
C 28.814143 199.640398 28.952122 199.307286 28.952122 198.959996
C 28.952122 198.612707 28.814143 198.279595 28.568572 198.034024
C 28.323002 197.788453 27.989889 197.650474 27.6426 197.650474
C 27.295311 197.650474 26.962198 197.788453 26.716628 198.034024
C 26.471057 198.279595 26.333077 198.612707 26.333077 198.959996
C 26.333077 199.307286 26.471057 199.640398 26.716628 199.885968
C 26.962198 200.131539 27.295311 200.269519 27.6426 200.269519
z
" clip-path="url(#p325630dd4d)" style="fill: #138c8b; stroke: #138c8b; stroke-width: 0.8; stroke-linejoin: miter"/>
   </g>
   <g id="patch_35">
    <path d="M 32.88069 208.781415
C 33.227979 208.781415 33.561092 208.643435 33.806662 208.397865
C 34.052233 208.152294 34.190213 207.819182 34.190213 207.471892
C 34.190213 207.124603 34.052233 206.791491 33.806662 206.54592
C 33.561092 206.30035 33.227979 206.16237 32.88069 206.16237
C 32.533401 206.16237 32.200288 206.30035 31.954718 206.54592
C 31.709147 206.791491 31.571168 207.124603 31.571168 207.471892
C 31.571168 207.819182 31.709147 208.152294 31.954718 208.397865
C 32.200288 208.643435 32.533401 208.781415 32.88069 208.781415
z
" clip-path="url(#p325630dd4d)" style="fill: #138c8b; stroke: #138c8b; stroke-width: 0.8; stroke-linejoin: miter"/>
   </g>
   <g id="patch_36">
    <path d="M 26.333077 276.816418
C 27.409675 276.816418 28.442322 276.388681 29.203591 275.627412
C 29.964861 274.866143 30.392597 273.833495 30.392597 272.756898
C 30.392597 271.680301 29.964861 270.647653 29.203591 269.886384
C 28.442322 269.125115 27.409675 268.697378 26.333077 268.697378
C 25.25648 268.697378 24.223833 269.125115 23.462564 269.886384
C 22.701294 270.647653 22.273558 271.680301 22.273558 272.756898
C 22.273558 273.833495 22.701294 274.866143 23.462564 275.627412
C 24.223833 276.388681 25.25648 276.816418 26.333077 276.816418
z
" clip-path="url(#p325630dd4d)" style="fill: #ffffff; stroke: #66509a; stroke-width: 0.8; stroke-linejoin: miter"/>
   </g>
   <g id="line2d_19">
    <path d="M 29.606884 276.161656
L 33.666404 280.352128
" clip-path="url(#p325630dd4d)" style="fill: none; stroke: #66509a; stroke-width: 2; stroke-linecap: round"/>
   </g>
   <g id="line2d_20">
    <path d="M 24.106889 272.756898
L 25.809268 274.328325
L 28.559266 271.185471
" clip-path="url(#p325630dd4d)" style="fill: none; stroke: #66509a; stroke-linecap: round"/>
   </g>
   <g id="patch_37">
    <path d="M 140.672088 30.19086
L 147.9771 27.6426
L 155.282112 30.19086
L 154.262808 38.175408
L 147.9771 44.631
L 141.691392 38.175408
z
" clip-path="url(#p325630dd4d)" style="fill: #ffffff; stroke: #2463a5; stroke-width: 0.9; stroke-linejoin: miter"/>
   </g>
   <g id="line2d_21">
    <path d="M 144.239652 36.1368
L 147.297564 39.194712
L 152.054316 32.909004
" clip-path="url(#p325630dd4d)" style="fill: none; stroke: #2463a5; stroke-width: 1.4; stroke-linecap: round"/>
   </g>
   <g id="patch_38">
    <path d="M 165.67335 76.254199
C 168.334338 76.254199 170.886697 75.196977 172.768299 73.315374
C 174.649902 71.433772 175.707124 68.881413 175.707124 66.220425
C 175.707124 63.559437 174.649902 61.007078 172.768299 59.125476
C 170.886697 57.243873 168.334338 56.186651 165.67335 56.186651
C 163.012362 56.186651 160.460003 57.243873 158.578401 59.125476
C 156.696798 61.007078 155.639576 63.559437 155.639576 66.220425
C 155.639576 68.881413 156.696798 71.433772 158.578401 73.315374
C 160.460003 75.196977 163.012362 76.254199 165.67335 76.254199
z
" clip-path="url(#p325630dd4d)" style="fill: #ffffff; stroke: #2463a5; stroke-width: 0.8; stroke-linejoin: miter"/>
   </g>
   <g id="patch_39">
    <path d="M 165.67335 72.686635
C 167.388209 72.686635 169.033062 72.005314 170.245651 70.792726
C 171.458239 69.580137 172.13956 67.935284 172.13956 66.220425
C 172.13956 64.505566 171.458239 62.860713 170.245651 61.648124
C 169.033062 60.435536 167.388209 59.754215 165.67335 59.754215
C 163.958491 59.754215 162.313638 60.435536 161.101049 61.648124
C 159.888461 62.860713 159.20714 64.505566 159.20714 66.220425
C 159.20714 67.935284 159.888461 69.580137 161.101049 70.792726
C 162.313638 72.005314 163.958491 72.686635 165.67335 72.686635
z
" clip-path="url(#p325630dd4d)" style="fill: #ffffff; stroke: #2463a5; stroke-width: 0.8; stroke-linejoin: miter"/>
   </g>
   <g id="patch_40">
    <path d="M 165.67335 68.896098
C 166.382947 68.896098 167.063576 68.614172 167.565337 68.112412
C 168.067097 67.610651 168.349023 66.930022 168.349023 66.220425
C 168.349023 65.510828 168.067097 64.830199 167.565337 64.328438
C 167.063576 63.826678 166.382947 63.544752 165.67335 63.544752
C 164.963753 63.544752 164.283124 63.826678 163.781363 64.328438
C 163.279603 64.830199 162.997677 65.510828 162.997677 66.220425
C 162.997677 66.930022 163.279603 67.610651 163.781363 68.112412
C 164.283124 68.614172 164.963753 68.896098 165.67335 68.896098
z
" clip-path="url(#p325630dd4d)" style="fill: #ffffff; stroke: #2463a5; stroke-width: 0.8; stroke-linejoin: miter"/>
   </g>
   <g id="line2d_22">
    <path d="M 165.67335 66.220425
L 176.599015 55.517733
" clip-path="url(#p325630dd4d)" style="fill: none; stroke: #2463a5; stroke-width: 1.4; stroke-linecap: round"/>
   </g>
   <g id="patch_41">
    <path d="M 226.54845 73.467039
C 229.386837 73.467039 232.109353 72.70349 234.116396 71.344555
C 236.123439 69.98562 237.251142 68.14225 237.251142 66.220425
C 237.251142 64.2986 236.123439 62.45523 234.116396 61.096295
C 232.109353 59.73736 229.386837 58.973811 226.54845 58.973811
C 223.710063 58.973811 220.987547 59.73736 218.980504 61.096295
C 216.973461 62.45523 215.845758 64.2986 215.845758 66.220425
C 215.845758 68.14225 216.973461 69.98562 218.980504 71.344555
C 220.987547 72.70349 223.710063 73.467039 226.54845 73.467039
z
" clip-path="url(#p325630dd4d)" style="fill: #eef4fb; stroke-dasharray: 3,2; stroke-dashoffset: 0; stroke: #2463a5; stroke-linejoin: miter"/>
   </g>
   <g id="patch_42">
    <path d="M 224.764668 68.450152
C 225.355999 68.450152 225.92319 68.215214 226.341323 67.79708
C 226.759457 67.378947 226.994395 66.811756 226.994395 66.220425
C 226.994395 65.629094 226.759457 65.061903 226.341323 64.64377
C 225.92319 64.225636 225.355999 63.990697 224.764668 63.990697
C 224.173337 63.990697 223.606146 64.225636 223.188013 64.64377
C 222.769879 65.061903 222.534941 65.629094 222.534941 66.220425
C 222.534941 66.811756 222.769879 67.378947 223.188013 67.79708
C 223.606146 68.215214 224.173337 68.450152 224.764668 68.450152
z
" clip-path="url(#p325630dd4d)" style="fill: #2463a5; stroke: #2463a5; stroke-width: 0.8; stroke-linejoin: miter"/>
   </g>
   <g id="line2d_23">
    <path d="M 278.50464 65.774479
L 296.119487 55.517733
" clip-path="url(#p325630dd4d)" style="fill: none; stroke: #2463a5; stroke-linecap: round"/>
   </g>
   <g id="line2d_24">
    <path d="M 347.944725 76.254199
L 347.944725 56.186651
" clip-path="url(#p325630dd4d)" style="fill: none; stroke: #2463a5; stroke-linecap: round"/>
   </g>
   <g id="line2d_25">
    <path d="M 338.133924 60.200161
L 357.755526 60.200161
" clip-path="url(#p325630dd4d)" style="fill: none; stroke: #2463a5; stroke-linecap: round"/>
   </g>
   <g id="line2d_26">
    <path d="M 343.039324 76.254199
L 352.850125 76.254199
" clip-path="url(#p325630dd4d)" style="fill: none; stroke: #2463a5; stroke-width: 1.5; stroke-linecap: round"/>
   </g>
   <g id="patch_43">
    <path d="M 340.809597 60.200161
L 336.796087 70.010962
L 344.823106 70.010962
z
" clip-path="url(#p325630dd4d)" style="fill: #ffffff; stroke: #2463a5; stroke-width: 0.9; stroke-linejoin: miter"/>
   </g>
   <g id="patch_44">
    <path d="M 355.079853 60.200161
L 351.066344 70.010962
L 359.093362 70.010962
z
" clip-path="url(#p325630dd4d)" style="fill: #ffffff; stroke: #2463a5; stroke-width: 0.9; stroke-linejoin: miter"/>
   </g>
   <g id="line2d_27">
    <path d="M 147.9771 148.065581
L 147.9771 134.209417
" clip-path="url(#p325630dd4d)" style="fill: none; stroke: #138c8b; stroke-width: 1.2; stroke-linecap: round"/>
   </g>
   <g id="line2d_28">
    <path d="M 147.9771 141.694931
L 141.60645 136.439145
" clip-path="url(#p325630dd4d)" style="fill: none; stroke: #138c8b; stroke-width: 1.2; stroke-linecap: round"/>
   </g>
   <g id="line2d_29">
    <path d="M 147.9771 141.694931
L 154.34775 136.439145
" clip-path="url(#p325630dd4d)" style="fill: none; stroke: #138c8b; stroke-width: 1.2; stroke-linecap: round"/>
   </g>
   <g id="patch_45">
    <path d="M 147.9771 135.483547
C 148.315003 135.483547 148.639112 135.349297 148.878046 135.110363
C 149.11698 134.87143 149.25123 134.547321 149.25123 134.209417
C 149.25123 133.871514 149.11698 133.547405 148.878046 133.308472
C 148.639112 133.069538 148.315003 132.935287 147.9771 132.935287
C 147.639197 132.935287 147.315088 133.069538 147.076154 133.308472
C 146.83722 133.547405 146.70297 133.871514 146.70297 134.209417
C 146.70297 134.547321 146.83722 134.87143 147.076154 135.110363
C 147.315088 135.349297 147.639197 135.483547 147.9771 135.483547
z
" clip-path="url(#p325630dd4d)" style="fill: #138c8b; stroke: #138c8b; stroke-width: 0.8; stroke-linejoin: miter"/>
   </g>
   <g id="patch_46">
    <path d="M 141.60645 137.713275
C 141.944353 137.713275 142.268462 137.579025 142.507396 137.340091
C 142.74633 137.101157 142.88058 136.777048 142.88058 136.439145
C 142.88058 136.101242 142.74633 135.777133 142.507396 135.538199
C 142.268462 135.299265 141.944353 135.165015 141.60645 135.165015
C 141.268547 135.165015 140.944438 135.299265 140.705504 135.538199
C 140.46657 135.777133 140.33232 136.101242 140.33232 136.439145
C 140.33232 136.777048 140.46657 137.101157 140.705504 137.340091
C 140.944438 137.579025 141.268547 137.713275 141.60645 137.713275
z
" clip-path="url(#p325630dd4d)" style="fill: #138c8b; stroke: #138c8b; stroke-width: 0.8; stroke-linejoin: miter"/>
   </g>
   <g id="patch_47">
    <path d="M 154.34775 137.713275
C 154.685653 137.713275 155.009762 137.579025 155.248696 137.340091
C 155.48763 137.101157 155.62188 136.777048 155.62188 136.439145
C 155.62188 136.101242 155.48763 135.777133 155.248696 135.538199
C 155.009762 135.299265 154.685653 135.165015 154.34775 135.165015
C 154.009847 135.165015 153.685738 135.299265 153.446804 135.538199
C 153.20787 135.777133 153.07362 136.101242 153.07362 136.439145
C 153.07362 136.777048 153.20787 137.101157 153.446804 137.340091
C 153.685738 137.579025 154.009847 137.713275 154.34775 137.713275
z
" clip-path="url(#p325630dd4d)" style="fill: #138c8b; stroke: #138c8b; stroke-width: 0.8; stroke-linejoin: miter"/>
   </g>
   <g id="line2d_30">
    <path d="M 169.49574 185.811682
L 181.67076 185.811682
" clip-path="url(#p325630dd4d)" style="fill: none; stroke: #2463a5; stroke-linecap: round"/>
   </g>
   <g id="line2d_31">
    <path d="M 169.49574 185.811682
L 175.58325 175.919479
L 181.67076 185.811682
" clip-path="url(#p325630dd4d)" style="fill: none; stroke: #2463a5; stroke-linecap: round"/>
   </g>
   <g id="patch_48">
    <path d="M 169.49574 187.33356
C 169.899347 187.33356 170.286477 187.173205 170.57187 186.887812
C 170.857263 186.602419 171.017618 186.215289 171.017618 185.811682
C 171.017618 185.408076 170.857263 185.020946 170.57187 184.735553
C 170.286477 184.45016 169.899347 184.289805 169.49574 184.289805
C 169.092133 184.289805 168.705003 184.45016 168.41961 184.735553
C 168.134217 185.020946 167.973863 185.408076 167.973863 185.811682
C 167.973863 186.215289 168.134217 186.602419 168.41961 186.887812
C 168.705003 187.173205 169.092133 187.33356 169.49574 187.33356
z
" clip-path="url(#p325630dd4d)" style="fill: #2463a5; stroke: #2463a5; stroke-width: 0.8; stroke-linejoin: miter"/>
   </g>
   <g id="patch_49">
    <path d="M 175.58325 177.441356
C 175.986857 177.441356 176.373987 177.281002 176.65938 176.995609
C 176.944773 176.710216 177.105127 176.323085 177.105127 175.919479
C 177.105127 175.515872 176.944773 175.128742 176.65938 174.843349
C 176.373987 174.557956 175.986857 174.397601 175.58325 174.397601
C 175.179643 174.397601 174.792513 174.557956 174.50712 174.843349
C 174.221727 175.128742 174.061373 175.515872 174.061373 175.919479
C 174.061373 176.323085 174.221727 176.710216 174.50712 176.995609
C 174.792513 177.281002 175.179643 177.441356 175.58325 177.441356
z
" clip-path="url(#p325630dd4d)" style="fill: #2463a5; stroke: #2463a5; stroke-width: 0.8; stroke-linejoin: miter"/>
   </g>
   <g id="patch_50">
    <path d="M 181.67076 187.33356
C 182.074367 187.33356 182.461497 187.173205 182.74689 186.887812
C 183.032283 186.602419 183.192637 186.215289 183.192637 185.811682
C 183.192637 185.408076 183.032283 185.020946 182.74689 184.735553
C 182.461497 184.45016 182.074367 184.289805 181.67076 184.289805
C 181.267153 184.289805 180.880023 184.45016 180.59463 184.735553
C 180.309237 185.020946 180.148883 185.408076 180.148883 185.811682
C 180.148883 186.215289 180.309237 186.602419 180.59463 186.887812
C 180.880023 187.173205 181.267153 187.33356 181.67076 187.33356
z
" clip-path="url(#p325630dd4d)" style="fill: #2463a5; stroke: #2463a5; stroke-width: 0.8; stroke-linejoin: miter"/>
   </g>
   <g id="line2d_32">
    <path d="M 250.89849 185.811682
L 256.986 175.919479
L 263.07351 185.811682
" clip-path="url(#p325630dd4d)" style="fill: none; stroke: #138c8b; stroke-linecap: round"/>
   </g>
   <g id="patch_51">
    <path d="M 250.89849 187.33356
C 251.302097 187.33356 251.689227 187.173205 251.97462 186.887812
C 252.260013 186.602419 252.420367 186.215289 252.420367 185.811682
C 252.420367 185.408076 252.260013 185.020946 251.97462 184.735553
C 251.689227 184.45016 251.302097 184.289805 250.89849 184.289805
C 250.494883 184.289805 250.107753 184.45016 249.82236 184.735553
C 249.536967 185.020946 249.376613 185.408076 249.376613 185.811682
C 249.376613 186.215289 249.536967 186.602419 249.82236 186.887812
C 250.107753 187.173205 250.494883 187.33356 250.89849 187.33356
z
" clip-path="url(#p325630dd4d)" style="fill: #138c8b; stroke: #138c8b; stroke-width: 0.8; stroke-linejoin: miter"/>
   </g>
   <g id="patch_52">
    <path d="M 256.986 177.441356
C 257.389607 177.441356 257.776737 177.281002 258.06213 176.995609
C 258.347523 176.710216 258.507878 176.323085 258.507878 175.919479
C 258.507878 175.515872 258.347523 175.128742 258.06213 174.843349
C 257.776737 174.557956 257.389607 174.397601 256.986 174.397601
C 256.582393 174.397601 256.195263 174.557956 255.90987 174.843349
C 255.624477 175.128742 255.464123 175.515872 255.464123 175.919479
C 255.464123 176.323085 255.624477 176.710216 255.90987 176.995609
C 256.195263 177.281002 256.582393 177.441356 256.986 177.441356
z
" clip-path="url(#p325630dd4d)" style="fill: #138c8b; stroke: #138c8b; stroke-width: 0.8; stroke-linejoin: miter"/>
   </g>
   <g id="patch_53">
    <path d="M 263.07351 187.33356
C 263.477117 187.33356 263.864247 187.173205 264.14964 186.887812
C 264.435033 186.602419 264.595388 186.215289 264.595388 185.811682
C 264.595388 185.408076 264.435033 185.020946 264.14964 184.735553
C 263.864247 184.45016 263.477117 184.289805 263.07351 184.289805
C 262.669903 184.289805 262.282773 184.45016 261.99738 184.735553
C 261.711987 185.020946 261.551632 185.408076 261.551632 185.811682
C 261.551632 186.215289 261.711987 186.602419 261.99738 186.887812
C 262.282773 187.173205 262.669903 187.33356 263.07351 187.33356
z
" clip-path="url(#p325630dd4d)" style="fill: #138c8b; stroke: #138c8b; stroke-width: 0.8; stroke-linejoin: miter"/>
   </g>
   <g id="patch_54">
    <path d="M 336.866873 184.137617
C 338.118053 184.137617 339.318157 183.640518 340.202875 182.7558
C 341.087593 181.871081 341.584693 180.670978 341.584693 179.419797
C 341.584693 178.168616 341.087593 176.968513 340.202875 176.083794
C 339.318157 175.199076 338.118053 174.701977 336.866873 174.701977
C 335.615692 174.701977 334.415588 175.199076 333.53087 176.083794
C 332.646152 176.968513 332.149052 178.168616 332.149052 179.419797
C 332.149052 180.670978 332.646152 181.871081 333.53087 182.7558
C 334.415588 183.640518 335.615692 184.137617 336.866873 184.137617
z
" clip-path="url(#p325630dd4d)" style="fill: #ffffff; stroke: #66509a; stroke-width: 0.8; stroke-linejoin: miter"/>
   </g>
   <g id="line2d_33">
    <path d="M 340.671566 183.376678
L 345.389387 188.246686
" clip-path="url(#p325630dd4d)" style="fill: none; stroke: #66509a; stroke-width: 2; stroke-linecap: round"/>
   </g>
   <g id="line2d_34">
    <path d="M 334.279681 179.419797
L 336.258122 181.24605
L 339.454064 177.593544
" clip-path="url(#p325630dd4d)" style="fill: none; stroke: #66509a; stroke-linecap: round"/>
   </g>
   <g id="patch_55">
    <path d="M 170.047863 286.036164
L 181.118637 286.036164
L 181.118637 274.151362
L 177.536916 270.406836
L 170.047863 270.406836
z
" clip-path="url(#p325630dd4d)" style="fill: #ffffff; stroke: #138c8b; stroke-width: 0.9; stroke-linejoin: miter"/>
   </g>
   <g id="line2d_35">
    <path d="M 177.536916 270.406836
L 177.536916 274.151362
L 181.118637 274.151362
" clip-path="url(#p325630dd4d)" style="fill: none; stroke: #138c8b; stroke-linecap: round"/>
   </g>
   <g id="line2d_36">
    <path d="M 172.32714 282.128832
L 178.513749 282.128832
" clip-path="url(#p325630dd4d)" style="fill: none; stroke: #138c8b; stroke-width: 0.8; stroke-linecap: round"/>
   </g>
   <g id="line2d_37">
    <path d="M 172.32714 278.872722
L 178.513749 278.872722
" clip-path="url(#p325630dd4d)" style="fill: none; stroke: #138c8b; stroke-width: 0.8; stroke-linecap: round"/>
   </g>
   <g id="line2d_38">
    <path d="M 172.32714 275.942223
L 178.513749 275.942223
" clip-path="url(#p325630dd4d)" style="fill: none; stroke: #138c8b; stroke-width: 0.8; stroke-linecap: round"/>
   </g>
   <g id="line2d_39">
    <path d="M 250.47378 283.105665
L 256.986 272.523307
L 263.49822 283.105665
" clip-path="url(#p325630dd4d)" style="fill: none; stroke: #2463a5; stroke-linecap: round"/>
   </g>
   <g id="patch_56">
    <path d="M 250.47378 284.73372
C 250.905545 284.73372 251.319685 284.562178 251.624989 284.256874
C 251.930293 283.95157 252.101835 283.53743 252.101835 283.105665
C 252.101835 282.6739 251.930293 282.25976 251.624989 281.954456
C 251.319685 281.649152 250.905545 281.47761 250.47378 281.47761
C 250.042015 281.47761 249.627875 281.649152 249.322571 281.954456
C 249.017267 282.25976 248.845725 282.6739 248.845725 283.105665
C 248.845725 283.53743 249.017267 283.95157 249.322571 284.256874
C 249.627875 284.562178 250.042015 284.73372 250.47378 284.73372
z
" clip-path="url(#p325630dd4d)" style="fill: #2463a5; stroke: #2463a5; stroke-width: 0.8; stroke-linejoin: miter"/>
   </g>
   <g id="patch_57">
    <path d="M 256.986 274.151363
C 257.417765 274.151363 257.831905 273.97982 258.137209 273.674516
C 258.442513 273.369212 258.614055 272.955073 258.614055 272.523307
C 258.614055 272.091542 258.442513 271.677403 258.137209 271.372099
C 257.831905 271.066795 257.417765 270.895252 256.986 270.895252
C 256.554235 270.895252 256.140095 271.066795 255.834791 271.372099
C 255.529487 271.677403 255.357945 272.091542 255.357945 272.523307
C 255.357945 272.955073 255.529487 273.369212 255.834791 273.674516
C 256.140095 273.97982 256.554235 274.151363 256.986 274.151363
z
" clip-path="url(#p325630dd4d)" style="fill: #2463a5; stroke: #2463a5; stroke-width: 0.8; stroke-linejoin: miter"/>
   </g>
   <g id="patch_58">
    <path d="M 263.49822 284.73372
C 263.929985 284.73372 264.344125 284.562178 264.649429 284.256874
C 264.954733 283.95157 265.126275 283.53743 265.126275 283.105665
C 265.126275 282.6739 264.954733 282.25976 264.649429 281.954456
C 264.344125 281.649152 263.929985 281.47761 263.49822 281.47761
C 263.066455 281.47761 262.652315 281.649152 262.347011 281.954456
C 262.041707 282.25976 261.870165 282.6739 261.870165 283.105665
C 261.870165 283.53743 262.041707 283.95157 262.347011 284.256874
C 262.652315 284.562178 263.066455 284.73372 263.49822 284.73372
z
" clip-path="url(#p325630dd4d)" style="fill: #2463a5; stroke: #2463a5; stroke-width: 0.8; stroke-linejoin: miter"/>
   </g>
   <g id="patch_59">
    <path d="M 335.458251 278.547111
C 335.674134 278.547111 335.881203 278.46134 336.033855 278.308688
C 336.186507 278.156036 336.272278 277.948966 336.272278 277.733084
C 336.272278 277.517201 336.186507 277.310131 336.033855 277.157479
C 335.881203 277.004827 335.674134 276.919056 335.458251 276.919056
C 335.242368 276.919056 335.035299 277.004827 334.882647 277.157479
C 334.729995 277.310131 334.644223 277.517201 334.644223 277.733084
C 334.644223 277.948966 334.729995 278.156036 334.882647 278.308688
C 335.035299 278.46134 335.242368 278.547111 335.458251 278.547111
z
" clip-path="url(#p325630dd4d)" style="fill: #66509a; stroke: #66509a; stroke-width: 0.8; stroke-linejoin: miter"/>
   </g>
   <g id="patch_60">
    <path d="M 341.319249 278.547111
C 341.535132 278.547111 341.742201 278.46134 341.894853 278.308688
C 342.047505 278.156036 342.133277 277.948966 342.133277 277.733084
C 342.133277 277.517201 342.047505 277.310131 341.894853 277.157479
C 341.742201 277.004827 341.535132 276.919056 341.319249 276.919056
C 341.103366 276.919056 340.896297 277.004827 340.743645 277.157479
C 340.590993 277.310131 340.505222 277.517201 340.505222 277.733084
C 340.505222 277.948966 340.590993 278.156036 340.743645 278.308688
C 340.896297 278.46134 341.103366 278.547111 341.319249 278.547111
z
" clip-path="url(#p325630dd4d)" style="fill: #66509a; stroke: #66509a; stroke-width: 0.8; stroke-linejoin: miter"/>
   </g>
   <g id="line2d_40">
    <path d="M 336.109473 280.989193
L 340.668027 280.989193
" clip-path="url(#p325630dd4d)" style="fill: none; stroke: #66509a; stroke-linecap: round"/>
   </g>
   <g id="line2d_41">
    <path d="M 338.38875 273.337335
L 338.38875 270.406836
" clip-path="url(#p325630dd4d)" style="fill: none; stroke: #66509a; stroke-linecap: round"/>
   </g>
   <g id="patch_61">
    <path d="M 338.38875 270.406836
C 338.604633 270.406836 338.811702 270.321065 338.964354 270.168413
C 339.117006 270.015761 339.202778 269.808691 339.202778 269.592808
C 339.202778 269.376926 339.117006 269.169856 338.964354 269.017204
C 338.811702 268.864552 338.604633 268.778781 338.38875 268.778781
C 338.172867 268.778781 337.965798 268.864552 337.813146 269.017204
C 337.660494 269.169856 337.574723 269.376926 337.574723 269.592808
C 337.574723 269.808691 337.660494 270.015761 337.813146 270.168413
C 337.965798 270.321065 338.172867 270.406836 338.38875 270.406836
z
" clip-path="url(#p325630dd4d)" style="fill: #66509a; stroke: #66509a; stroke-width: 0.8; stroke-linejoin: miter"/>
   </g>
   <g id="patch_62">
    <path d="M 158.59485 340.427358
C 159.886391 340.427358 161.125208 339.914223 162.038466 339.000966
C 162.951723 338.087708 163.464858 336.848891 163.464858 335.55735
C 163.464858 334.265809 162.951723 333.026992 162.038466 332.113734
C 161.125208 331.200477 159.886391 330.687342 158.59485 330.687342
C 157.303309 330.687342 156.064492 331.200477 155.151234 332.113734
C 154.237977 333.026992 153.724842 334.265809 153.724842 335.55735
C 153.724842 336.848891 154.237977 338.087708 155.151234 339.000966
C 156.064492 339.914223 157.303309 340.427358 158.59485 340.427358
z
" clip-path="url(#p325630dd4d)" style="fill: #ffffff; stroke: #c57828; stroke-width: 0.8; stroke-linejoin: miter"/>
   </g>
   <g id="line2d_42">
    <path d="M 155.989962 335.55735
L 161.199738 335.55735
" clip-path="url(#p325630dd4d)" style="fill: none; stroke: #c57828; stroke-width: 1.3; stroke-linecap: round"/>
   </g>
   <g id="patch_63">
    <path d="M 239.9976 340.427358
C 241.289141 340.427358 242.527958 339.914223 243.441216 339.000966
C 244.354473 338.087708 244.867608 336.848891 244.867608 335.55735
C 244.867608 334.265809 244.354473 333.026992 243.441216 332.113734
C 242.527958 331.200477 241.289141 330.687342 239.9976 330.687342
C 238.706059 330.687342 237.467242 331.200477 236.553984 332.113734
C 235.640727 333.026992 235.127592 334.265809 235.127592 335.55735
C 235.127592 336.848891 235.640727 338.087708 236.553984 339.000966
C 237.467242 339.914223 238.706059 340.427358 239.9976 340.427358
z
" clip-path="url(#p325630dd4d)" style="fill: #ffffff; stroke: #2463a5; stroke-width: 0.8; stroke-linejoin: miter"/>
   </g>
   <g id="line2d_43">
    <path d="M 237.505968 337.82247
L 242.602488 332.952462
" clip-path="url(#p325630dd4d)" style="fill: none; stroke: #2463a5; stroke-width: 2; stroke-linecap: round"/>
   </g>
   <g id="line2d_44">
    <path d="M 237.392712 338.162238
L 237.1662 336.010374
" clip-path="url(#p325630dd4d)" style="fill: none; stroke: #2463a5; stroke-linecap: round"/>
   </g>
   <g id="patch_64">
    <path d="M 321.40035 340.427358
C 322.691891 340.427358 323.930708 339.914223 324.843966 339.000966
C 325.757223 338.087708 326.270358 336.848891 326.270358 335.55735
C 326.270358 334.265809 325.757223 333.026992 324.843966 332.113734
C 323.930708 331.200477 322.691891 330.687342 321.40035 330.687342
C 320.108809 330.687342 318.869992 331.200477 317.956734 332.113734
C 317.043477 333.026992 316.530342 334.265809 316.530342 335.55735
C 316.530342 336.848891 317.043477 338.087708 317.956734 339.000966
C 318.869992 339.914223 320.108809 340.427358 321.40035 340.427358
z
" clip-path="url(#p325630dd4d)" style="fill: #ffffff; stroke: #138c8b; stroke-width: 0.8; stroke-linejoin: miter"/>
   </g>
   <g id="line2d_45">
    <path d="M 318.795462 335.55735
L 324.005238 335.55735
" clip-path="url(#p325630dd4d)" style="fill: none; stroke: #138c8b; stroke-width: 1.3; stroke-linecap: round"/>
   </g>
   <g id="line2d_46">
    <path d="M 321.40035 338.162238
L 321.40035 332.952462
" clip-path="url(#p325630dd4d)" style="fill: none; stroke: #138c8b; stroke-width: 1.3; stroke-linecap: round"/>
   </g>
   <g id="patch_65">
    <path d="M 421.33971 164.994947
L 427.799265 164.994947
L 427.799265 158.060423
L 425.709409 155.875573
L 421.33971 155.875573
z
" clip-path="url(#p325630dd4d)" style="fill: #ffffff; stroke: #2463a5; stroke-width: 0.9; stroke-linejoin: miter"/>
   </g>
   <g id="line2d_47">
    <path d="M 425.709409 155.875573
L 425.709409 158.060423
L 427.799265 158.060423
" clip-path="url(#p325630dd4d)" style="fill: none; stroke: #2463a5; stroke-linecap: round"/>
   </g>
   <g id="line2d_48">
    <path d="M 422.669618 162.715103
L 426.27937 162.715103
" clip-path="url(#p325630dd4d)" style="fill: none; stroke: #2463a5; stroke-width: 0.8; stroke-linecap: round"/>
   </g>
   <g id="line2d_49">
    <path d="M 422.669618 160.815234
L 426.27937 160.815234
" clip-path="url(#p325630dd4d)" style="fill: none; stroke: #2463a5; stroke-width: 0.8; stroke-linecap: round"/>
   </g>
   <g id="line2d_50">
    <path d="M 422.669618 159.105351
L 426.27937 159.105351
" clip-path="url(#p325630dd4d)" style="fill: none; stroke: #2463a5; stroke-width: 0.8; stroke-linecap: round"/>
   </g>
   <g id="patch_66">
    <path d="M 441.811581 146.453524
L 446.371267 143.793706
L 450.930954 146.453524
z
" clip-path="url(#p325630dd4d)" style="fill: #2463a5; stroke: #2463a5; stroke-width: 0.9; stroke-linejoin: miter"/>
   </g>
   <g id="line2d_51">
    <path d="M 443.521463 151.393184
L 443.521463 147.213471
" clip-path="url(#p325630dd4d)" style="fill: none; stroke: #2463a5; stroke-width: 1.5; stroke-linecap: round"/>
   </g>
   <g id="line2d_52">
    <path d="M 446.371267 151.393184
L 446.371267 147.213471
" clip-path="url(#p325630dd4d)" style="fill: none; stroke: #2463a5; stroke-width: 1.5; stroke-linecap: round"/>
   </g>
   <g id="line2d_53">
    <path d="M 449.221072 151.393184
L 449.221072 147.213471
" clip-path="url(#p325630dd4d)" style="fill: none; stroke: #2463a5; stroke-width: 1.5; stroke-linecap: round"/>
   </g>
   <g id="line2d_54">
    <path d="M 441.621594 152.533106
L 451.120941 152.533106
" clip-path="url(#p325630dd4d)" style="fill: none; stroke: #2463a5; stroke-width: 1.5; stroke-linecap: round"/>
   </g>
   <g id="line2d_55">
    <path d="M 442.191555 151.298191
L 450.55098 151.298191
" clip-path="url(#p325630dd4d)" style="fill: none; stroke: #2463a5; stroke-linecap: round"/>
   </g>
   <g id="patch_67">
    <path d="M 482.967112 155.901339
C 483.420579 155.901339 483.855533 155.721175 484.176182 155.400526
C 484.496831 155.079877 484.676995 154.644923 484.676995 154.191457
C 484.676995 153.737991 484.496831 153.303036 484.176182 152.982387
C 483.855533 152.661738 483.420579 152.481574 482.967112 152.481574
C 482.513646 152.481574 482.078692 152.661738 481.758043 152.982387
C 481.437394 153.303036 481.25723 153.737991 481.25723 154.191457
C 481.25723 154.644923 481.437394 155.079877 481.758043 155.400526
C 482.078692 155.721175 482.513646 155.901339 482.967112 155.901339
z
" clip-path="url(#p325630dd4d)" style="fill: #138c8b; stroke: #138c8b; stroke-width: 0.8; stroke-linejoin: miter"/>
   </g>
   <g id="patch_68">
    <path d="M 482.967112 160.176045
C 483.748082 160.176045 484.49717 159.965854 485.049399 159.591764
C 485.601628 159.217673 485.91191 158.710226 485.91191 158.181182
C 485.91191 157.652139 485.601628 157.144692 485.049399 156.770601
C 484.49717 156.396511 483.748082 156.18632 482.967112 156.18632
C 482.186143 156.18632 481.437055 156.396511 480.884826 156.770601
C 480.332597 157.144692 480.022315 157.652139 480.022315 158.181182
C 480.022315 158.710226 480.332597 159.217673 480.884826 159.591764
C 481.437055 159.965854 482.186143 160.176045 482.967112 160.176045
z
" clip-path="url(#p325630dd4d)" style="fill: #138c8b; stroke: #138c8b; stroke-width: 0.7; stroke-linejoin: miter"/>
   </g>
   <g id="patch_69">
    <path d="M 455.714887 173.438889
C 456.772975 173.438889 457.787869 173.288753 458.53605 173.021545
C 459.284231 172.754338 459.704613 172.391876 459.704613 172.013987
C 459.704613 171.636099 459.284231 171.273637 458.53605 171.006429
C 457.787869 170.739222 456.772975 170.589085 455.714887 170.589085
C 454.6568 170.589085 453.641906 170.739222 452.893725 171.006429
C 452.145544 171.273637 451.725162 171.636099 451.725162 172.013987
C 451.725162 172.391876 452.145544 172.754338 452.893725 173.021545
C 453.641906 173.288753 454.6568 173.438889 455.714887 173.438889
z
" clip-path="url(#p325630dd4d)" style="fill: #ffffff; stroke: #2463a5; stroke-linejoin: miter"/>
   </g>
   <g id="patch_70">
    <path d="M 455.714887 170.779072
C 456.772975 170.779072 457.787869 170.628935 458.53605 170.361728
C 459.284231 170.09452 459.704613 169.732058 459.704613 169.35417
C 459.704613 168.976282 459.284231 168.61382 458.53605 168.346612
C 457.787869 168.079405 456.772975 167.929268 455.714887 167.929268
C 454.6568 167.929268 453.641906 168.079405 452.893725 168.346612
C 452.145544 168.61382 451.725162 168.976282 451.725162 169.35417
C 451.725162 169.732058 452.145544 170.09452 452.893725 170.361728
C 453.641906 170.628935 454.6568 170.779072 455.714887 170.779072
z
" clip-path="url(#p325630dd4d)" style="fill: #ffffff; stroke: #2463a5; stroke-linejoin: miter"/>
   </g>
   <g id="patch_71">
    <path d="M 455.714887 168.119255
C 456.772975 168.119255 457.787869 167.969118 458.53605 167.701911
C 459.284231 167.434703 459.704613 167.072241 459.704613 166.694353
C 459.704613 166.316464 459.284231 165.954002 458.53605 165.686795
C 457.787869 165.419587 456.772975 165.269451 455.714887 165.269451
C 454.6568 165.269451 453.641906 165.419587 452.893725 165.686795
C 452.145544 165.954002 451.725162 166.316464 451.725162 166.694353
C 451.725162 167.072241 452.145544 167.434703 452.893725 167.701911
C 453.641906 167.969118 454.6568 168.119255 455.714887 168.119255
z
" clip-path="url(#p325630dd4d)" style="fill: #ffffff; stroke: #2463a5; stroke-linejoin: miter"/>
   </g>
   <g id="line2d_56">
    <path d="M 451.725162 172.013987
L 451.725162 166.694353
" clip-path="url(#p325630dd4d)" style="fill: none; stroke: #2463a5; stroke-linecap: round"/>
   </g>
   <g id="line2d_57">
    <path d="M 459.704613 172.013987
L 459.704613 166.694353
" clip-path="url(#p325630dd4d)" style="fill: none; stroke: #2463a5; stroke-linecap: round"/>
   </g>
   <g id="patch_72">
    <path d="M 430.798567 181.667079
C 431.252034 181.667079 431.686988 181.486915 432.007637 181.166266
C 432.328286 180.845617 432.50845 180.410663 432.50845 179.957197
C 432.50845 179.503731 432.328286 179.068776 432.007637 178.748127
C 431.686988 178.427478 431.252034 178.247314 430.798567 178.247314
C 430.345101 178.247314 429.910147 178.427478 429.589498 178.748127
C 429.268849 179.068776 429.088685 179.503731 429.088685 179.957197
C 429.088685 180.410663 429.268849 180.845617 429.589498 181.166266
C 429.910147 181.486915 430.345101 181.667079 430.798567 181.667079
z
" clip-path="url(#p325630dd4d)" style="fill: #138c8b; stroke: #138c8b; stroke-width: 0.8; stroke-linejoin: miter"/>
   </g>
   <g id="patch_73">
    <path d="M 430.798567 185.941785
C 431.579537 185.941785 432.328625 185.731594 432.880854 185.357504
C 433.433083 184.983413 433.743365 184.475966 433.743365 183.946922
C 433.743365 183.417879 433.433083 182.910432 432.880854 182.536341
C 432.328625 182.162251 431.579537 181.95206 430.798567 181.95206
C 430.017598 181.95206 429.26851 182.162251 428.716281 182.536341
C 428.164052 182.910432 427.85377 183.417879 427.85377 183.946922
C 427.85377 184.475966 428.164052 184.983413 428.716281 185.357504
C 429.26851 185.731594 430.017598 185.941785 430.798567 185.941785
z
" clip-path="url(#p325630dd4d)" style="fill: #138c8b; stroke: #138c8b; stroke-width: 0.7; stroke-linejoin: miter"/>
   </g>
   <g id="patch_74">
    <path d="M 482.851875 183.328262
L 489.31143 183.328262
L 489.31143 176.393738
L 487.221574 174.208888
L 482.851875 174.208888
z
" clip-path="url(#p325630dd4d)" style="fill: #ffffff; stroke: #2463a5; stroke-width: 0.9; stroke-linejoin: miter"/>
   </g>
   <g id="line2d_58">
    <path d="M 487.221574 174.208888
L 487.221574 176.393738
L 489.31143 176.393738
" clip-path="url(#p325630dd4d)" style="fill: none; stroke: #2463a5; stroke-linecap: round"/>
   </g>
   <g id="line2d_59">
    <path d="M 484.181783 181.048418
L 487.791535 181.048418
" clip-path="url(#p325630dd4d)" style="fill: none; stroke: #2463a5; stroke-width: 0.8; stroke-linecap: round"/>
   </g>
   <g id="line2d_60">
    <path d="M 484.181783 179.148549
L 487.791535 179.148549
" clip-path="url(#p325630dd4d)" style="fill: none; stroke: #2463a5; stroke-width: 0.8; stroke-linecap: round"/>
   </g>
   <g id="line2d_61">
    <path d="M 484.181783 177.438666
L 487.791535 177.438666
" clip-path="url(#p325630dd4d)" style="fill: none; stroke: #2463a5; stroke-width: 0.8; stroke-linecap: round"/>
   </g>
   <g id="line2d_62">
    <path d="M 456.586959 197.969714
L 464.186436 197.969714
" clip-path="url(#p325630dd4d)" style="fill: none; stroke: #138c8b; stroke-linecap: round"/>
   </g>
   <g id="line2d_63">
    <path d="M 456.586959 197.969714
L 460.386697 191.795139
L 464.186436 197.969714
" clip-path="url(#p325630dd4d)" style="fill: none; stroke: #138c8b; stroke-linecap: round"/>
   </g>
   <g id="patch_75">
    <path d="M 456.586959 198.919649
C 456.838884 198.919649 457.080526 198.819558 457.258664 198.641419
C 457.436802 198.463281 457.536893 198.22164 457.536893 197.969714
C 457.536893 197.717788 457.436802 197.476147 457.258664 197.298009
C 457.080526 197.119871 456.838884 197.019779 456.586959 197.019779
C 456.335033 197.019779 456.093392 197.119871 455.915253 197.298009
C 455.737115 197.476147 455.637024 197.717788 455.637024 197.969714
C 455.637024 198.22164 455.737115 198.463281 455.915253 198.641419
C 456.093392 198.819558 456.335033 198.919649 456.586959 198.919649
z
" clip-path="url(#p325630dd4d)" style="fill: #138c8b; stroke: #138c8b; stroke-width: 0.8; stroke-linejoin: miter"/>
   </g>
   <g id="patch_76">
    <path d="M 460.386697 192.745073
C 460.638623 192.745073 460.880264 192.644982 461.058403 192.466844
C 461.236541 192.288705 461.336632 192.047064 461.336632 191.795139
C 461.336632 191.543213 461.236541 191.301572 461.058403 191.123433
C 460.880264 190.945295 460.638623 190.845204 460.386697 190.845204
C 460.134772 190.845204 459.893131 190.945295 459.714992 191.123433
C 459.536854 191.301572 459.436763 191.543213 459.436763 191.795139
C 459.436763 192.047064 459.536854 192.288705 459.714992 192.466844
C 459.893131 192.644982 460.134772 192.745073 460.386697 192.745073
z
" clip-path="url(#p325630dd4d)" style="fill: #138c8b; stroke: #138c8b; stroke-width: 0.8; stroke-linejoin: miter"/>
   </g>
   <g id="patch_77">
    <path d="M 464.186436 198.919649
C 464.438362 198.919649 464.680003 198.819558 464.858142 198.641419
C 465.03628 198.463281 465.136371 198.22164 465.136371 197.969714
C 465.136371 197.717788 465.03628 197.476147 464.858142 197.298009
C 464.680003 197.119871 464.438362 197.019779 464.186436 197.019779
C 463.934511 197.019779 463.692869 197.119871 463.514731 197.298009
C 463.336593 197.476147 463.236502 197.717788 463.236502 197.969714
C 463.236502 198.22164 463.336593 198.463281 463.514731 198.641419
C 463.692869 198.819558 463.934511 198.919649 464.186436 198.919649
z
" clip-path="url(#p325630dd4d)" style="fill: #138c8b; stroke: #138c8b; stroke-width: 0.8; stroke-linejoin: miter"/>
   </g>
   <g id="patch_78">
    <path d="M 416.588479 268.223119
L 421.91505 266.365012
L 427.241621 268.223119
L 426.498379 274.045185
L 421.91505 278.752387
L 417.331721 274.045185
z
" clip-path="url(#p325630dd4d)" style="fill: #ffffff; stroke: #66509a; stroke-width: 0.9; stroke-linejoin: miter"/>
   </g>
   <g id="line2d_64">
    <path d="M 419.189827 272.5587
L 421.419555 274.788427
L 424.88802 270.205099
" clip-path="url(#p325630dd4d)" style="fill: none; stroke: #66509a; stroke-width: 1.4; stroke-linecap: round"/>
   </g>
   <g id="text_1">
    <text style="fill: #17212b; font: 700 8.4px 'Times New Roman', serif" transform="translate(32.767444 91.044866)">Diagnostics</text>
    <text style="fill: #17212b; font: 700 8.4px 'Times New Roman', serif" transform="translate(28.7676 99.797246)">(three scopes)</text>
   </g>
   <g id="text_2">
    <text style="fill: #2463a5; font: 700 7.4px 'Times New Roman', serif; text-anchor: middle" x="58.788" y="134.416966" transform="rotate(-0 58.788 134.416966)">Local scope</text>
   </g>
   <g id="text_3">
    <text style="fill: #17212b; font: 6.9px 'Times New Roman', serif" transform="translate(33.468975 152.570872)">Isolated nodes</text>
    <text style="fill: #17212b; font: 6.9px 'Times New Roman', serif" transform="translate(28.868616 159.892073)">Redundant triples</text>
    <text style="fill: #17212b; font: 6.9px 'Times New Roman', serif" transform="translate(28.48103 167.213275)">Missing attributes</text>
   </g>
   <g id="text_4">
    <text style="fill: #138c8b; font: 700 7.4px 'Times New Roman', serif; text-anchor: middle" x="58.788" y="205.259778" transform="rotate(-0 58.788 205.259778)">Graph scope</text>
   </g>
   <g id="text_5">
    <text style="fill: #17212b; font: 6.9px 'Times New Roman', serif" transform="translate(26.386772 223.355872)">Hierarchy reversals</text>
    <text style="fill: #17212b; font: 6.9px 'Times New Roman', serif" transform="translate(29.638397 230.690011)">Schema conflicts</text>
    <text style="fill: #17212b; font: 6.9px 'Times New Roman', serif" transform="translate(30.787678 238.011213)">Invalid relations</text>
   </g>
   <g id="text_6">
    <text style="fill: #66509a; font: 700 7.4px 'Times New Roman', serif; text-anchor: middle" x="58.788" y="276.042466" transform="rotate(-0 58.788 276.042466)">Source scope</text>
   </g>
   <g id="text_7">
    <text style="fill: #17212b; font: 6.9px 'Times New Roman', serif" transform="translate(25.802428 294.140872)">Unsupported values</text>
    <text style="fill: #17212b; font: 6.9px 'Times New Roman', serif" transform="translate(31.555842 301.462073)">Semantic errors</text>
    <text style="fill: #17212b; font: 6.9px 'Times New Roman', serif" transform="translate(33.280303 308.783275)">Evidence gaps</text>
   </g>
   <g id="text_8">
    <!-- Profile $\mathbf{s}$ -->
    <g style="fill: #5f6b76" transform="translate(104.4635 181.128806)">
     <text>
      <tspan style="font: 6.5px 'Times New Roman'" x="0 3.61499 5.779541 9.029541 11.194092 13 14.805908 17.690918" y="-0.140625">Profile </tspan>
      <tspan style="font: 700 6.5px 'Times New Roman'" x="19.315918" y="-0.140625">s</tspan>
     </text>
    </g>
    <text style="fill: #5f6b76; font: 6.5px 'Times New Roman', serif" transform="translate(99.951586 188.025591)">+ violations</text>
   </g>
   <g id="text_9">
    <text style="fill: #2463a5; font: 700 8.5px 'Times New Roman', serif; text-anchor: start" x="164.611575" y="38.108402" transform="rotate(-0 164.611575 38.108402)">Constraint-driven optimization</text>
   </g>
   <g id="text_10">
    <text style="fill: #17212b; font: 700 7.3px 'Times New Roman', serif; text-anchor: middle" x="165.67335" y="87.322527" transform="rotate(-0 165.67335 87.322527)">Constraint set</text>
   </g>
   <g id="text_11">
    <text style="fill: #5f6b76; font: 6.5px 'Times New Roman', serif" transform="translate(145.818897 98.658187)">Logic / schema</text>
    <text style="fill: #5f6b76; font: 6.5px 'Times New Roman', serif" transform="translate(147.079287 105.567159)">/ domain rules</text>
   </g>
   <g id="text_12">
    <text style="fill: #17212b; font: 700 7.3px 'Times New Roman', serif; text-anchor: middle" x="226.54845" y="87.372714" transform="rotate(-0 226.54845 87.372714)">Feasible region</text>
   </g>
   <g id="text_13">
    <text style="fill: #5f6b76; font: 6.5px 'Times New Roman', serif" transform="translate(206.597512 98.652094)">Quality bounds</text>
    <text style="fill: #5f6b76; font: 6.5px 'Times New Roman', serif" transform="translate(204.858255 105.561066)">+ density ceiling</text>
   </g>
   <g id="text_14">
    <text style="fill: #17212b; font: 700 7.3px 'Times New Roman', serif; text-anchor: middle" x="287.42355" y="87.372714" transform="rotate(-0 287.42355 87.372714)">Local gain</text>
   </g>
   <g id="text_15">
    <text style="fill: #5f6b76; font: 6.5px 'Times New Roman', serif" transform="translate(272.739644 98.652094)">Trial-graph</text>
    <text style="fill: #5f6b76; font: 6.5px 'Times New Roman', serif" transform="translate(266.755073 105.561066)">quality estimate</text>
   </g>
   <g id="text_16">
    <text style="fill: #17212b; font: 700 7.3px 'Times New Roman', serif; text-anchor: middle" x="347.944725" y="87.322527" transform="rotate(-0 347.944725 87.322527)">Action cost</text>
   </g>
   <g id="text_17">
    <text style="fill: #5f6b76; font: 6.5px 'Times New Roman', serif" transform="translate(325.565428 98.658187)">Least-destructive</text>
    <text style="fill: #5f6b76; font: 6.5px 'Times New Roman', serif" transform="translate(322.588631 105.554972)">operation hierarchy</text>
   </g>
   <g id="text_18">
    <g id="patch_79">
     <path d="M 399.074836 138.101414
L 399.074836 117.505336
L 390.958664 117.505336
L 390.958664 138.101414
z
" style="fill: #ffffff"/>
    </g>
    <text style="fill: #2463a5; font: 6.3px 'Times New Roman', serif" transform="translate(396.530227 136.904414) rotate(-90)">bounds</text>
   </g>
   <g id="text_19">
    <text style="fill: #138c8b; font: 700 8.2px 'Times New Roman', serif; text-anchor: start" x="164.611575" y="142.792928" transform="rotate(-0 164.611575 142.792928)">Profile-conditioned repair routing</text>
   </g>
   <g id="text_20">
    <!-- $(p_{\mathrm{repair}},\pi)=f_{\varphi}([\mathbf{s};\mathbf{g}])$; trigger if $p_{\mathrm{repair}}\geq\tau_{\mathrm{repair}}$ -->
    <g style="fill: #17212b" transform="translate(194.742 160.736625)">
     <text>
      <tspan style="font: 7.2px 'Times New Roman'" x="0 18.169225 24.660948 28.122399 38.377512 40.791819 46.027536 52.713962 55.128269 57.542575 59.556858 61.369358 63.38364 65.797946 67.812229 71.437229 75.062229 78.280124 80.694431 82.506931 84.521213 86.93552 105.550081" y="-0.140625">(,)=([;]); trigger if ≥</tspan>
      <tspan style="font: italic 7.2px 'Times New Roman'" x="2.414307 21.028868 33.258287 88.74802 110.576229" y="-0.140625">pπfpτ</tspan>
      <tspan style="font: 5.04px 'Times New Roman'" x="6.039307 7.729321 9.981848 12.519348 14.771875 16.181873 92.37302 94.063034 96.315561 98.853061 101.105588 102.515586 113.171077 114.861092 117.113619 119.651119 121.903646 123.313643" y="1.6433999999999997">repairrepairrepair</tspan>
      <tspan style="font: italic 5.04px 'Times New Roman'" x="35.272569" y="1.6433999999999997">φ</tspan>
      <tspan style="font: 700 7.2px 'Times New Roman'" x="43.206125 49.088962" y="-0.140625">sg</tspan>
     </text>
    </g>
   </g>
   <g id="text_21">
    <text style="fill: #2463a5; font: 700 7.6px 'Times New Roman', serif; text-anchor: middle" x="175.58325" y="198.876144" transform="rotate(-0 175.58325 198.876144)">Local</text>
   </g>
   <g id="text_22">
    <text style="fill: #5f6b76; font: 6.7px 'Times New Roman', serif; text-anchor: middle" x="175.58325" y="211.16962" transform="rotate(-0 175.58325 211.16962)">Local structure</text>
   </g>
   <g id="text_23">
    <text style="fill: #138c8b; font: 700 7.6px 'Times New Roman', serif; text-anchor: middle" x="256.986" y="198.935519" transform="rotate(-0 256.986 198.935519)">Graph</text>
   </g>
   <g id="text_24">
    <text style="fill: #5f6b76; font: 6.7px 'Times New Roman', serif; text-anchor: middle" x="256.986" y="211.163339" transform="rotate(-0 256.986 211.163339)">Logical constraints</text>
   </g>
   <g id="text_25">
    <text style="fill: #66509a; font: 700 7.6px 'Times New Roman', serif; text-anchor: middle" x="338.38875" y="198.876144" transform="rotate(-0 338.38875 198.876144)">Source</text>
   </g>
   <g id="text_26">
    <text style="fill: #5f6b76; font: 6.7px 'Times New Roman', serif; text-anchor: middle" x="338.38875" y="211.16962" transform="rotate(-0 338.38875 211.16962)">Source support</text>
   </g>
   <g id="text_27">
    <text style="fill: #138c8b; font: 6.7px 'Times New Roman', serif; text-anchor: middle" x="256.986" y="224.258564" transform="rotate(-0 256.986 224.258564)">Scope probabilities bias candidate selection; they do not fix an action.</text>
   </g>
   <g id="text_28">
    <text style="fill: #c57828; font: 700 8.4px 'Times New Roman', serif; text-anchor: middle" x="256.986" y="258.226556" transform="rotate(-0 256.986 258.226556)">Repair modalities and candidate actions</text>
   </g>
   <g id="text_29">
    <text style="fill: #138c8b; font: 700 7.1px 'Times New Roman', serif" transform="translate(149.476328 294.568619)">Source-grounded</text>
    <text style="fill: #138c8b; font: 700 7.1px 'Times New Roman', serif" transform="translate(158.821703 301.971878)">completion</text>
   </g>
   <g id="text_30">
    <text style="fill: #5f6b76; font: 6.5px 'Times New Roman', serif; text-anchor: middle" x="175.58325" y="315.16943" transform="rotate(-0 175.58325 315.16943)">Copy supplied evidence</text>
   </g>
   <g id="text_31">
    <text style="fill: #2463a5; font: 700 7.1px 'Times New Roman', serif" transform="translate(240.023102 294.589697)">Rule-based</text>
    <text style="fill: #2463a5; font: 700 7.1px 'Times New Roman', serif" transform="translate(243.05225 301.8443)">inference</text>
   </g>
   <g id="text_32">
    <text style="fill: #5f6b76; font: 6.5px 'Times New Roman', serif; text-anchor: middle" x="256.986" y="315.16943" transform="rotate(-0 256.986 315.16943)">Apply domain templates</text>
   </g>
   <g id="text_33">
    <text style="fill: #66509a; font: 700 7.1px 'Times New Roman', serif" transform="translate(330.301961 294.515369)">LLM</text>
    <text style="fill: #66509a; font: 700 7.1px 'Times New Roman', serif" transform="translate(323.657914 301.905315)">reasoning</text>
   </g>
   <g id="text_34">
    <text style="fill: #5f6b76; font: 6.5px 'Times New Roman', serif; text-anchor: middle" x="338.38875" y="315.16943" transform="rotate(-0 338.38875 315.16943)">Resolve semantic gaps</text>
   </g>
   <g id="text_35">
    <text style="fill: #c57828; font: 700 7.1px 'Times New Roman', serif; text-anchor: middle" x="180.184275" y="337.148748" transform="rotate(-0 180.184275 337.148748)">Delete</text>
   </g>
   <g id="text_36">
    <text style="fill: #2463a5; font: 700 7.1px 'Times New Roman', serif; text-anchor: middle" x="261.587025" y="337.142092" transform="rotate(-0 261.587025 337.142092)">Retype</text>
   </g>
   <g id="text_37">
    <text style="fill: #138c8b; font: 700 7.1px 'Times New Roman', serif; text-anchor: middle" x="342.989775" y="337.201998" transform="rotate(-0 342.989775 337.201998)">Complete</text>
   </g>
   <g id="text_38">
    <!-- Operation penalties: $\lambda_{\mathrm{del}} &gt; \lambda_{\mathrm{ret}} &gt; \lambda_{\mathrm{cmp}}$ -->
    <g style="fill: #17212b" transform="translate(205.65 349.37865)">
     <text>
      <tspan style="font: 7.2px 'Times New Roman'" x="0 5.235718 8.860718 12.078613 14.49292 17.710815 19.725098 21.73938 25.36438 28.98938 30.80188 34.42688 37.644775 41.269775 44.487671 46.501953 48.516235 50.530518 53.748413 56.569824 58.584106 71.081127 86.05405" y="-0.140625">Operation penalties: &gt;&gt;</tspan>
      <tspan style="font: italic 7.2px 'Times New Roman'" x="60.396606 76.217015 91.189939" y="-0.140625">λλλ</tspan>
      <tspan style="font: 5.04px 'Times New Roman'" x="63.536621 66.074121 68.326648 79.35703 81.047045 83.299571 94.329953 96.58248 100.529978" y="1.6433999999999997">delretcmp</tspan>
     </text>
    </g>
   </g>
   <g id="text_39">
    <text style="fill: #138c8b; font: 700 8px 'Times New Roman', serif" transform="translate(421.821137 127.61795)">Updated knowledge</text>
    <text style="fill: #138c8b; font: 700 8px 'Times New Roman', serif" transform="translate(445.490512 135.80715)">graph</text>
   </g>
   <g id="text_40">
    <text style="fill: #138c8b; font: 7px 'Times New Roman', serif" transform="translate(427.917231 211.768575)">Accepted edits only</text>
    <text style="fill: #138c8b; font: 7px 'Times New Roman', serif" transform="translate(428.402309 219.209006)">Recorded decisions</text>
   </g>
   <g id="text_41">
    <text style="fill: #66509a; font: 700 7.8px 'Times New Roman', serif; text-anchor: middle" x="462.97035" y="274.360622" transform="rotate(-0 462.97035 274.360622)">Trial + gate</text>
   </g>
   <g id="text_42">
    <text style="fill: #17212b; font: 6.6px 'Times New Roman', serif" transform="translate(435.457012 292.605396)">Quality bounds</text>
    <text style="fill: #17212b; font: 6.6px 'Times New Roman', serif" transform="translate(420.980325 299.620659)">Density / regression guard</text>
    <text style="fill: #17212b; font: 6.6px 'Times New Roman', serif" transform="translate(436.371216 306.635923)">Positive utility</text>
   </g>
   <g id="text_43">
    <text style="fill: #66509a; font: 6.5px 'Times New Roman', serif; text-anchor: middle" x="455.714887" y="322.603378" transform="rotate(-0 455.714887 322.603378)">Reject: retain current graph</text>
   </g>
   <g id="text_44">
    <text style="fill: #138c8b; font: 6.6px 'Times New Roman', serif; text-anchor: middle" x="471.110625" y="247.245947" transform="rotate(-0 471.110625 247.245947)">accept</text>
   </g>
   <g id="text_45">
    <g id="patch_80">
     <path d="M 172.083656 386.289478
L 341.888344 386.289478
L 341.888344 374.014322
L 172.083656 374.014322
z
" style="fill: #ffffff"/>
    </g>
    <text style="fill: #138c8b; font: 700 7px 'Times New Roman', serif; text-anchor: middle" x="256.986" y="381.769009" transform="rotate(-0 256.986 381.769009)">Reassess the current graph and check stopping criteria</text>
   </g>
   <g id="text_46">
    <text style="fill: #5f6b76; font: 6.7px 'Times New Roman', serif; text-anchor: middle" x="256.986" y="402.282839" transform="rotate(-0 256.986 402.282839)">Stop: low trigger probability, no violations, no positive feasible action, or iteration limit.</text>
   </g>
  </g>
 </g>
 <defs>
  <clipPath id="p325630dd4d">
   <rect x="2.16" y="2.16" width="509.652" height="408.783375"/>
  </clipPath>
 </defs>
</svg>
