<?xml version="1.0" encoding="utf-8" standalone="no"?>
<!DOCTYPE svg PUBLIC "-//W3C//DTD SVG 1.1//EN"
  "http://www.w3.org/Graphics/SVG/1.1/DTD/svg11.dtd">
<svg xmlns:xlink="http://www.w3.org/1999/xlink" width="515.99952pt" height="202.79952pt" viewBox="0 0 515.99952 202.79952" xmlns="http://www.w3.org/2000/svg" version="1.1">
 <metadata>
  <rdf:RDF xmlns:dc="http://purl.org/dc/elements/1.1/" xmlns:cc="http://creativecommons.org/ns#" xmlns:rdf="http://www.w3.org/1999/02/22-rdf-syntax-ns#">
   <cc:Work>
    <dc:type rdf:resource="http://purl.org/dc/dcmitype/StillImage"/>
    <dc:date>2026-09-24T17:48:21.284313</dc:date>
    <dc:format>image/svg+xml</dc:format>
    <dc:creator>
     <cc:Agent>
      <dc:title>Matplotlib v3.7.5, https://matplotlib.org/</dc:title>
     </cc:Agent>
    </dc:creator>
   </cc:Work>
  </rdf:RDF>
 </metadata>
 <defs>
  <style type="text/css">*{stroke-linejoin: round; stroke-linecap: butt}</style>
 </defs>
 <g id="figure_1">
  <g id="patch_1">
   <path d="M 0 202.79952
L 515.99952 202.79952
L 515.99952 0
L 0 0
z
" style="fill: #ffffff"/>
  </g>
  <g id="axes_1">
   <g id="patch_2">
    <path d="M 39.45625 170.942176
L 237.19077 170.942176
L 237.19077 16.54375
L 39.45625 16.54375
z
" style="fill: #ffffff"/>
   </g>
   <g id="PolyCollection_1">
    <defs>
     <path id="m885e51b15a" d="M 48.444183 -49.420881
L 48.444183 -46.415352
L 58.430775 -100.876958
L 68.417367 -112.45241
L 78.403958 -117.706448
L 88.39055 -123.269237
L 98.377142 -133.936327
L 108.363734 -139.415472
L 118.350326 -140.384848
L 128.336918 -153.978673
L 138.32351 -154.670181
L 148.310102 -155.890937
L 158.296694 -156.638728
L 168.283286 -156.581043
L 178.269878 -162.005955
L 188.25647 -162.808533
L 198.243062 -163.211027
L 208.229653 -163.353417
L 218.216245 -163.111125
L 228.202837 -164.424031
L 228.202837 -169.873601
L 228.202837 -169.873601
L 218.216245 -169.987412
L 208.229653 -167.35858
L 198.243062 -167.921958
L 188.25647 -167.980571
L 178.269878 -167.364269
L 168.283286 -169.743289
L 158.296694 -169.087723
L 148.310102 -168.983077
L 138.32351 -168.717785
L 128.336918 -167.486213
L 118.350326 -168.516477
L 108.363734 -165.861548
L 98.377142 -164.501306
L 88.39055 -160.009714
L 78.403958 -151.778977
L 68.417367 -146.358257
L 58.430775 -116.656728
L 48.444183 -49.420881
z
" style="stroke: #326c99; stroke-opacity: 0.08"/>
    </defs>
    <g clip-path="url(#p415cd83b36)">
     <use xlink:href="#m885e51b15a" x="0" y="202.79952" style="fill: #326c99; fill-opacity: 0.08; stroke: #326c99; stroke-opacity: 0.08"/>
    </g>
   </g>
   <g id="PolyCollection_2">
    <defs>
     <path id="m741b041fc9" d="M 48.444183 -49.420881
L 48.444183 -46.415352
L 58.430775 -103.597861
L 68.417367 -121.928948
L 78.403958 -158.591122
L 88.39055 -156.985692
L 98.377142 -154.407123
L 108.363734 -158.591122
L 118.350326 -156.380066
L 128.336918 -158.363548
L 138.32351 -160.53987
L 148.310102 -163.632107
L 158.296694 -165.775501
L 168.283286 -166.630424
L 178.269878 -167.767935
L 188.25647 -168.977932
L 198.243062 -169.923848
L 208.229653 -170.26581
L 218.216245 -170.839729
L 228.202837 -171.349078
L 228.202837 -171.720208
L 228.202837 -171.720208
L 218.216245 -171.31441
L 208.229653 -170.869392
L 198.243062 -170.577138
L 188.25647 -169.911224
L 178.269878 -168.890244
L 168.283286 -167.877846
L 158.296694 -167.118716
L 148.310102 -165.586501
L 138.32351 -163.239988
L 128.336918 -161.19619
L 118.350326 -159.385595
L 108.363734 -161.596652
L 98.377142 -157.412653
L 88.39055 -159.991221
L 78.403958 -161.596652
L 68.417367 -124.934477
L 58.430775 -106.60339
L 48.444183 -49.420881
z
" style="stroke: #b96732; stroke-opacity: 0.08"/>
    </defs>
    <g clip-path="url(#p415cd83b36)">
     <use xlink:href="#m741b041fc9" x="0" y="202.79952" style="fill: #b96732; fill-opacity: 0.08; stroke: #b96732; stroke-opacity: 0.08"/>
    </g>
   </g>
   <g id="PolyCollection_3">
    <defs>
     <path id="m4f2f06efea" d="M 48.444183 -49.420881
L 48.444183 -46.415352
L 58.430775 -121.928948
L 68.417367 -158.591122
L 78.403958 -161.479937
L 88.39055 -164.020086
L 98.377142 -166.194358
L 108.363734 -168.03202
L 118.350326 -169.349022
L 128.336918 -170.421918
L 138.32351 -171.379819
L 148.310102 -172.181401
L 158.296694 -172.809084
L 168.283286 -173.272979
L 178.269878 -173.662647
L 188.25647 -173.959544
L 198.243062 -174.231782
L 208.229653 -174.443923
L 218.216245 -174.586069
L 228.202837 -174.714061
L 228.202837 -174.828555
L 228.202837 -174.828555
L 218.216245 -174.737727
L 208.229653 -174.58541
L 198.243062 -174.414686
L 188.25647 -174.211272
L 178.269878 -173.97531
L 168.283286 -173.686297
L 158.296694 -173.304649
L 148.310102 -172.835713
L 138.32351 -172.27516
L 128.336918 -171.51674
L 118.350326 -170.533709
L 108.363734 -169.380628
L 98.377142 -168.000884
L 88.39055 -166.295029
L 78.403958 -164.098412
L 68.417367 -161.596652
L 58.430775 -124.934477
L 48.444183 -49.420881
z
" style="stroke: #467d64; stroke-opacity: 0.08"/>
    </defs>
    <g clip-path="url(#p415cd83b36)">
     <use xlink:href="#m4f2f06efea" x="0" y="202.79952" style="fill: #467d64; fill-opacity: 0.08; stroke: #467d64; stroke-opacity: 0.08"/>
    </g>
   </g>
   <g id="PolyCollection_4">
    <defs>
     <path id="m71324f0e4e" d="M 48.444183 -49.420881
L 48.444183 -46.415352
L 58.430775 -121.928948
L 68.417367 -158.591122
L 78.403958 -160.680534
L 88.39055 -162.25361
L 98.377142 -162.686745
L 108.363734 -163.841694
L 118.350326 -164.295457
L 128.336918 -165.605507
L 138.32351 -166.946661
L 148.310102 -167.413655
L 158.296694 -168.855521
L 168.283286 -169.509529
L 178.269878 -170.47204
L 188.25647 -170.995298
L 198.243062 -171.338867
L 208.229653 -171.752681
L 218.216245 -173.332914
L 228.202837 -173.725247
L 228.202837 -174.769111
L 228.202837 -174.769111
L 218.216245 -174.497049
L 208.229653 -174.285156
L 198.243062 -173.701692
L 188.25647 -173.116067
L 178.269878 -172.400471
L 168.283286 -171.83683
L 158.296694 -170.76896
L 148.310102 -170.433338
L 138.32351 -169.420073
L 128.336918 -168.847546
L 118.350326 -168.510117
L 108.363734 -167.590583
L 98.377142 -166.419296
L 88.39055 -165.450887
L 78.403958 -163.631821
L 68.417367 -161.596652
L 58.430775 -124.934477
L 48.444183 -49.420881
z
" style="stroke: #775b91; stroke-opacity: 0.08"/>
    </defs>
    <g clip-path="url(#p415cd83b36)">
     <use xlink:href="#m71324f0e4e" x="0" y="202.79952" style="fill: #775b91; fill-opacity: 0.08; stroke: #775b91; stroke-opacity: 0.08"/>
    </g>
   </g>
   <g id="matplotlib.axis_1">
    <g id="xtick_1">
     <g id="line2d_1">
      <path d="M 48.444183 170.942176
L 48.444183 16.54375
" clip-path="url(#p415cd83b36)" style="fill: none; stroke: #b0b0b0; stroke-opacity: 0.15; stroke-width: 0.8; stroke-linecap: square"/>
     </g>
     <g id="line2d_2">
      <defs>
       <path id="m8cda029d59" d="M 0 0
L 0 3.5
" style="stroke: #000000; stroke-width: 0.8"/>
      </defs>
      <g>
       <use xlink:href="#m8cda029d59" x="48.444183" y="170.942176" style="stroke: #000000; stroke-width: 0.8"/>
      </g>
     </g>
     <g id="text_1">
      <text style="font: 9px 'Times New Roman'; text-anchor: middle" x="48.444183" y="184.191551" transform="rotate(-0 48.444183 184.191551)">0</text>
     </g>
    </g>
    <g id="xtick_2">
     <g id="line2d_3">
      <path d="M 108.363734 170.942176
L 108.363734 16.54375
" clip-path="url(#p415cd83b36)" style="fill: none; stroke: #b0b0b0; stroke-opacity: 0.15; stroke-width: 0.8; stroke-linecap: square"/>
     </g>
     <g id="line2d_4">
      <g>
       <use xlink:href="#m8cda029d59" x="108.363734" y="170.942176" style="stroke: #000000; stroke-width: 0.8"/>
      </g>
     </g>
     <g id="text_2">
      <text style="font: 9px 'Times New Roman'; text-anchor: middle" x="108.363734" y="184.191551" transform="rotate(-0 108.363734 184.191551)">6</text>
     </g>
    </g>
    <g id="xtick_3">
     <g id="line2d_5">
      <path d="M 168.283286 170.942176
L 168.283286 16.54375
" clip-path="url(#p415cd83b36)" style="fill: none; stroke: #b0b0b0; stroke-opacity: 0.15; stroke-width: 0.8; stroke-linecap: square"/>
     </g>
     <g id="line2d_6">
      <g>
       <use xlink:href="#m8cda029d59" x="168.283286" y="170.942176" style="stroke: #000000; stroke-width: 0.8"/>
      </g>
     </g>
     <g id="text_3">
      <text style="font: 9px 'Times New Roman'; text-anchor: middle" x="168.283286" y="184.191551" transform="rotate(-0 168.283286 184.191551)">12</text>
     </g>
    </g>
    <g id="xtick_4">
     <g id="line2d_7">
      <path d="M 228.202837 170.942176
L 228.202837 16.54375
" clip-path="url(#p415cd83b36)" style="fill: none; stroke: #b0b0b0; stroke-opacity: 0.15; stroke-width: 0.8; stroke-linecap: square"/>
     </g>
     <g id="line2d_8">
      <g>
       <use xlink:href="#m8cda029d59" x="228.202837" y="170.942176" style="stroke: #000000; stroke-width: 0.8"/>
      </g>
     </g>
     <g id="text_4">
      <text style="font: 9px 'Times New Roman'; text-anchor: middle" x="228.202837" y="184.191551" transform="rotate(-0 228.202837 184.191551)">18</text>
     </g>
    </g>
    <g id="text_5">
     <text style="font: 10px 'Times New Roman'; text-anchor: middle" x="138.32351" y="197.060457" transform="rotate(-0 138.32351 197.060457)">Decision step</text>
    </g>
   </g>
   <g id="matplotlib.axis_2">
    <g id="ytick_1">
     <g id="line2d_9">
      <defs>
       <path id="m53a4f5fbb5" d="M 0 0
L -3.5 0
" style="stroke: #000000; stroke-width: 0.8"/>
      </defs>
      <g>
       <use xlink:href="#m53a4f5fbb5" x="39.45625" y="166.769246" style="stroke: #000000; stroke-width: 0.8"/>
      </g>
     </g>
     <g id="text_6">
      <text style="font: 9px 'Times New Roman'; text-anchor: end" x="32.45625" y="169.893933" transform="rotate(-0 32.45625 169.893933)">0.65</text>
     </g>
    </g>
    <g id="ytick_2">
     <g id="line2d_10">
      <g>
       <use xlink:href="#m53a4f5fbb5" x="39.45625" y="145.904594" style="stroke: #000000; stroke-width: 0.8"/>
      </g>
     </g>
     <g id="text_7">
      <text style="font: 9px 'Times New Roman'; text-anchor: end" x="32.45625" y="149.029281" transform="rotate(-0 32.45625 149.029281)">0.70</text>
     </g>
    </g>
    <g id="ytick_3">
     <g id="line2d_11">
      <g>
       <use xlink:href="#m53a4f5fbb5" x="39.45625" y="125.039941" style="stroke: #000000; stroke-width: 0.8"/>
      </g>
     </g>
     <g id="text_8">
      <text style="font: 9px 'Times New Roman'; text-anchor: end" x="32.45625" y="128.164629" transform="rotate(-0 32.45625 128.164629)">0.75</text>
     </g>
    </g>
    <g id="ytick_4">
     <g id="line2d_12">
      <g>
       <use xlink:href="#m53a4f5fbb5" x="39.45625" y="104.175289" style="stroke: #000000; stroke-width: 0.8"/>
      </g>
     </g>
     <g id="text_9">
      <text style="font: 9px 'Times New Roman'; text-anchor: end" x="32.45625" y="107.299977" transform="rotate(-0 32.45625 107.299977)">0.80</text>
     </g>
    </g>
    <g id="ytick_5">
     <g id="line2d_13">
      <g>
       <use xlink:href="#m53a4f5fbb5" x="39.45625" y="83.310637" style="stroke: #000000; stroke-width: 0.8"/>
      </g>
     </g>
     <g id="text_10">
      <text style="font: 9px 'Times New Roman'; text-anchor: end" x="32.45625" y="86.435325" transform="rotate(-0 32.45625 86.435325)">0.85</text>
     </g>
    </g>
    <g id="ytick_6">
     <g id="line2d_14">
      <g>
       <use xlink:href="#m53a4f5fbb5" x="39.45625" y="62.445985" style="stroke: #000000; stroke-width: 0.8"/>
      </g>
     </g>
     <g id="text_11">
      <text style="font: 9px 'Times New Roman'; text-anchor: end" x="32.45625" y="65.570672" transform="rotate(-0 32.45625 65.570672)">0.90</text>
     </g>
    </g>
    <g id="ytick_7">
     <g id="line2d_15">
      <g>
       <use xlink:href="#m53a4f5fbb5" x="39.45625" y="41.581333" style="stroke: #000000; stroke-width: 0.8"/>
      </g>
     </g>
     <g id="text_12">
      <text style="font: 9px 'Times New Roman'; text-anchor: end" x="32.45625" y="44.70602" transform="rotate(-0 32.45625 44.70602)">0.95</text>
     </g>
    </g>
    <g id="ytick_8">
     <g id="line2d_16">
      <g>
       <use xlink:href="#m53a4f5fbb5" x="39.45625" y="20.71668" style="stroke: #000000; stroke-width: 0.8"/>
      </g>
     </g>
     <g id="text_13">
      <text style="font: 9px 'Times New Roman'; text-anchor: end" x="32.45625" y="23.841368" transform="rotate(-0 32.45625 23.841368)">1.00</text>
     </g>
    </g>
    <g id="text_14">
     <text style="font: 10px 'Times New Roman'; text-anchor: middle" x="10.548438" y="93.742963" transform="rotate(-90 10.548438 93.742963)">Normalized joint quality</text>
    </g>
   </g>
   <g id="line2d_17">
    <path d="M 48.444183 154.881403
L 58.430775 94.032677
L 68.417367 73.394186
L 78.403958 68.056808
L 88.39055 61.160045
L 98.377142 53.580704
L 108.363734 50.16101
L 118.350326 48.348858
L 128.336918 42.067077
L 138.32351 41.105537
L 148.310102 40.362513
L 158.296694 39.936295
L 168.283286 39.637354
L 178.269878 38.114408
L 188.25647 37.404968
L 198.243062 37.233027
L 208.229653 37.443522
L 218.216245 36.250251
L 228.202837 35.650704
" clip-path="url(#p415cd83b36)" style="fill: none; stroke-dasharray: 1.7,2.805; stroke-dashoffset: 0; stroke: #326c99; stroke-width: 1.7"/>
   </g>
   <g id="line2d_18">
    <path d="M 48.444183 154.881403
L 58.430775 97.698895
L 68.417367 79.367807
L 78.403958 42.705633
L 88.39055 44.311064
L 98.377142 46.889632
L 108.363734 42.705633
L 118.350326 44.916689
L 128.336918 43.019651
L 138.32351 40.909591
L 148.310102 38.190216
L 158.296694 36.352412
L 168.283286 35.545385
L 178.269878 34.47043
L 188.25647 33.354942
L 198.243062 32.549027
L 208.229653 32.231919
L 218.216245 31.722451
L 228.202837 31.264877
" clip-path="url(#p415cd83b36)" style="fill: none; stroke-dasharray: 10.88,2.72,1.7,2.72; stroke-dashoffset: 0; stroke: #b96732; stroke-width: 1.7"/>
   </g>
   <g id="line2d_19">
    <path d="M 48.444183 154.881403
L 58.430775 79.367807
L 68.417367 42.705633
L 78.403958 40.010345
L 88.39055 37.641962
L 98.377142 35.701899
L 108.363734 34.093196
L 118.350326 32.858155
L 128.336918 31.830191
L 138.32351 30.97203
L 148.310102 30.290963
L 158.296694 29.742653
L 168.283286 29.319882
L 178.269878 28.980542
L 188.25647 28.714112
L 198.243062 28.476286
L 208.229653 28.284854
L 218.216245 28.137622
L 228.202837 28.028212
" clip-path="url(#p415cd83b36)" style="fill: none; stroke-dasharray: 6.29,2.72; stroke-dashoffset: 0; stroke: #467d64; stroke-width: 1.7"/>
   </g>
   <g id="line2d_20">
    <path d="M 48.444183 154.881403
L 58.430775 79.367807
L 68.417367 42.705633
L 78.403958 40.643342
L 88.39055 38.947272
L 98.377142 38.2465
L 108.363734 37.083381
L 118.350326 36.396733
L 128.336918 35.572993
L 138.32351 34.616153
L 148.310102 33.876024
L 158.296694 32.987279
L 168.283286 32.126341
L 178.269878 31.363265
L 188.25647 30.743837
L 198.243062 30.279241
L 208.229653 29.780601
L 218.216245 28.884538
L 228.202837 28.552341
" clip-path="url(#p415cd83b36)" style="fill: none; stroke: #775b91; stroke-width: 1.7; stroke-linecap: square"/>
   </g>
   <g id="patch_3">
    <path d="M 39.45625 170.942176
L 39.45625 16.54375
" style="fill: none; stroke: #000000; stroke-width: 0.8; stroke-linejoin: miter; stroke-linecap: square"/>
   </g>
   <g id="patch_4">
    <path d="M 39.45625 170.942176
L 237.19077 170.942176
" style="fill: none; stroke: #000000; stroke-width: 0.8; stroke-linejoin: miter; stroke-linecap: square"/>
   </g>
   <g id="text_15">
    <text style="font: 10px 'Times New Roman'; text-anchor: start" x="39.45625" y="10.54375" transform="rotate(-0 39.45625 10.54375)">(a) Matched feasible-action policies</text>
   </g>
   <g id="legend_1">
    <g id="line2d_21">
     <path d="M 152.87952 125.297176
L 160.87952 125.297176
L 168.87952 125.297176
" style="fill: none; stroke-dasharray: 1.7,2.805; stroke-dashoffset: 0; stroke: #326c99; stroke-width: 1.7"/>
    </g>
    <g id="text_16">
     <text style="font: 8px 'Times New Roman'; text-anchor: start" x="175.27952" y="128.097176" transform="rotate(-0 175.27952 128.097176)">Random valid</text>
    </g>
    <g id="line2d_22">
     <path d="M 152.87952 136.608426
L 160.87952 136.608426
L 168.87952 136.608426
" style="fill: none; stroke-dasharray: 10.88,2.72,1.7,2.72; stroke-dashoffset: 0; stroke: #b96732; stroke-width: 1.7"/>
    </g>
    <g id="text_17">
     <text style="font: 8px 'Times New Roman'; text-anchor: start" x="175.27952" y="139.408426" transform="rotate(-0 175.27952 139.408426)">Rule-first valid</text>
    </g>
    <g id="line2d_23">
     <path d="M 152.87952 147.919676
L 160.87952 147.919676
L 168.87952 147.919676
" style="fill: none; stroke-dasharray: 6.29,2.72; stroke-dashoffset: 0; stroke: #467d64; stroke-width: 1.7"/>
    </g>
    <g id="text_18">
     <text style="font: 8px 'Times New Roman'; text-anchor: start" x="175.27952" y="150.719676" transform="rotate(-0 175.27952 150.719676)">Acquire + deficit</text>
    </g>
    <g id="line2d_24">
     <path d="M 152.87952 159.230926
L 160.87952 159.230926
L 168.87952 159.230926
" style="fill: none; stroke: #775b91; stroke-width: 1.7; stroke-linecap: square"/>
    </g>
    <g id="text_19">
     <text style="font: 8px 'Times New Roman'; text-anchor: start" x="175.27952" y="162.030926" transform="rotate(-0 175.27952 162.030926)">Double DQN</text>
    </g>
   </g>
  </g>
  <g id="axes_2">
   <g id="patch_5">
    <path d="M 314.665 170.942176
L 512.39952 170.942176
L 512.39952 16.54375
L 314.665 16.54375
z
" style="fill: #ffffff"/>
   </g>
   <g id="matplotlib.axis_3">
    <g id="xtick_5">
     <g id="line2d_25">
      <path d="M 349.530673 170.942176
L 349.530673 16.54375
" clip-path="url(#p818eba233f)" style="fill: none; stroke: #b0b0b0; stroke-opacity: 0.15; stroke-width: 0.8; stroke-linecap: square"/>
     </g>
     <g id="line2d_26">
      <g>
       <use xlink:href="#m8cda029d59" x="349.530673" y="170.942176" style="stroke: #000000; stroke-width: 0.8"/>
      </g>
     </g>
     <g id="text_20">
      <text style="font: 9px 'Times New Roman'; text-anchor: middle" x="349.530673" y="184.191551" transform="rotate(-0 349.530673 184.191551)">0.00</text>
     </g>
    </g>
    <g id="xtick_6">
     <g id="line2d_27">
      <path d="M 393.289707 170.942176
L 393.289707 16.54375
" clip-path="url(#p818eba233f)" style="fill: none; stroke: #b0b0b0; stroke-opacity: 0.15; stroke-width: 0.8; stroke-linecap: square"/>
     </g>
     <g id="line2d_28">
      <g>
       <use xlink:href="#m8cda029d59" x="393.289707" y="170.942176" style="stroke: #000000; stroke-width: 0.8"/>
      </g>
     </g>
     <g id="text_21">
      <text style="font: 9px 'Times New Roman'; text-anchor: middle" x="393.289707" y="184.191551" transform="rotate(-0 393.289707 184.191551)">0.01</text>
     </g>
    </g>
    <g id="xtick_7">
     <g id="line2d_29">
      <path d="M 437.048741 170.942176
L 437.048741 16.54375
" clip-path="url(#p818eba233f)" style="fill: none; stroke: #b0b0b0; stroke-opacity: 0.15; stroke-width: 0.8; stroke-linecap: square"/>
     </g>
     <g id="line2d_30">
      <g>
       <use xlink:href="#m8cda029d59" x="437.048741" y="170.942176" style="stroke: #000000; stroke-width: 0.8"/>
      </g>
     </g>
     <g id="text_22">
      <text style="font: 9px 'Times New Roman'; text-anchor: middle" x="437.048741" y="184.191551" transform="rotate(-0 437.048741 184.191551)">0.02</text>
     </g>
    </g>
    <g id="xtick_8">
     <g id="line2d_31">
      <path d="M 480.807774 170.942176
L 480.807774 16.54375
" clip-path="url(#p818eba233f)" style="fill: none; stroke: #b0b0b0; stroke-opacity: 0.15; stroke-width: 0.8; stroke-linecap: square"/>
     </g>
     <g id="line2d_32">
      <g>
       <use xlink:href="#m8cda029d59" x="480.807774" y="170.942176" style="stroke: #000000; stroke-width: 0.8"/>
      </g>
     </g>
     <g id="text_23">
      <text style="font: 9px 'Times New Roman'; text-anchor: middle" x="480.807774" y="184.191551" transform="rotate(-0 480.807774 184.191551)">0.03</text>
     </g>
    </g>
    <g id="text_24">
     <text style="font: 10px 'Times New Roman'; text-anchor: middle" x="413.53226" y="197.060457" transform="rotate(-0 413.53226 197.060457)">AUC difference: full − comparator</text>
    </g>
   </g>
   <g id="matplotlib.axis_4">
    <g id="ytick_9">
     <g id="line2d_33">
      <g>
       <use xlink:href="#m53a4f5fbb5" x="314.665" y="23.56186" style="stroke: #000000; stroke-width: 0.8"/>
      </g>
     </g>
     <g id="text_25">
      <text style="font: 9px 'Times New Roman'; text-anchor: end" x="307.665" y="26.686548" transform="rotate(-0 307.665 26.686548)">Acquire + deficit</text>
     </g>
    </g>
    <g id="ytick_10">
     <g id="line2d_34">
      <g>
       <use xlink:href="#m53a4f5fbb5" x="314.665" y="58.652412" style="stroke: #000000; stroke-width: 0.8"/>
      </g>
     </g>
     <g id="text_26">
      <text style="font: 9px 'Times New Roman'; text-anchor: end" x="307.665" y="61.777099" transform="rotate(-0 307.665 61.777099)">No graph features</text>
     </g>
    </g>
    <g id="ytick_11">
     <g id="line2d_35">
      <g>
       <use xlink:href="#m53a4f5fbb5" x="314.665" y="93.742963" style="stroke: #000000; stroke-width: 0.8"/>
      </g>
     </g>
     <g id="text_27">
      <text style="font: 9px 'Times New Roman'; text-anchor: end" x="307.665" y="96.867651" transform="rotate(-0 307.665 96.867651)">No rule features</text>
     </g>
    </g>
    <g id="ytick_12">
     <g id="line2d_36">
      <g>
       <use xlink:href="#m53a4f5fbb5" x="314.665" y="128.833515" style="stroke: #000000; stroke-width: 0.8"/>
      </g>
     </g>
     <g id="text_28">
      <text style="font: 9px 'Times New Roman'; text-anchor: end" x="307.665" y="131.958202" transform="rotate(-0 307.665 131.958202)">No mask</text>
     </g>
    </g>
    <g id="ytick_13">
     <g id="line2d_37">
      <g>
       <use xlink:href="#m53a4f5fbb5" x="314.665" y="163.924066" style="stroke: #000000; stroke-width: 0.8"/>
      </g>
     </g>
     <g id="text_29">
      <text style="font: 9px 'Times New Roman'; text-anchor: end" x="307.665" y="167.048753" transform="rotate(-0 307.665 167.048753)">No call penalty</text>
     </g>
    </g>
   </g>
   <g id="line2d_38">
    <path d="M 323.652933 23.56186
L 332.740216 23.56186
" clip-path="url(#p818eba233f)" style="fill: none; stroke: #326c99; stroke-width: 1.8; stroke-linecap: square"/>
   </g>
   <g id="line2d_39">
    <path d="M 351.822019 58.652412
L 403.232165 58.652412
" clip-path="url(#p818eba233f)" style="fill: none; stroke: #326c99; stroke-width: 1.8; stroke-linecap: square"/>
   </g>
   <g id="line2d_40">
    <path d="M 363.308872 93.742963
L 391.659644 93.742963
" clip-path="url(#p818eba233f)" style="fill: none; stroke: #326c99; stroke-width: 1.8; stroke-linecap: square"/>
   </g>
   <g id="line2d_41">
    <path d="M 367.384018 128.833515
L 503.411587 128.833515
" clip-path="url(#p818eba233f)" style="fill: none; stroke: #326c99; stroke-width: 1.8; stroke-linecap: square"/>
   </g>
   <g id="line2d_42">
    <path d="M 342.183885 163.924066
L 396.686391 163.924066
" clip-path="url(#p818eba233f)" style="fill: none; stroke: #326c99; stroke-width: 1.8; stroke-linecap: square"/>
   </g>
   <g id="line2d_43">
    <path d="M 349.530673 170.942176
L 349.530673 16.54375
" clip-path="url(#p818eba233f)" style="fill: none; stroke-dasharray: 2.96,1.28; stroke-dashoffset: 0; stroke: #666666; stroke-width: 0.8"/>
   </g>
   <g id="patch_6">
    <path d="M 314.665 170.942176
L 314.665 16.54375
" style="fill: none; stroke: #000000; stroke-width: 0.8; stroke-linejoin: miter; stroke-linecap: square"/>
   </g>
   <g id="patch_7">
    <path d="M 314.665 170.942176
L 512.39952 170.942176
" style="fill: none; stroke: #000000; stroke-width: 0.8; stroke-linejoin: miter; stroke-linecap: square"/>
   </g>
   <g id="PathCollection_1">
    <defs>
     <path id="m1ab9a60ffd" d="M 0 2.236068
C 0.593012 2.236068 1.161816 2.000462 1.581139 1.581139
C 2.000462 1.161816 2.236068 0.593012 2.236068 0
C 2.236068 -0.593012 2.000462 -1.161816 1.581139 -1.581139
C 1.161816 -2.000462 0.593012 -2.236068 0 -2.236068
C -0.593012 -2.236068 -1.161816 -2.000462 -1.581139 -1.581139
C -2.000462 -1.161816 -2.236068 -0.593012 -2.236068 0
C -2.236068 0.593012 -2.000462 1.161816 -1.581139 1.581139
C -1.161816 2.000462 -0.593012 2.236068 0 2.236068
z
" style="stroke: #326c99"/>
    </defs>
    <g clip-path="url(#p818eba233f)">
     <use xlink:href="#m1ab9a60ffd" x="328.118093" y="23.56186" style="fill: #326c99; stroke: #326c99"/>
    </g>
   </g>
   <g id="PathCollection_2">
    <g clip-path="url(#p818eba233f)">
     <use xlink:href="#m1ab9a60ffd" x="371.298919" y="58.652412" style="fill: #326c99; stroke: #326c99"/>
    </g>
   </g>
   <g id="PathCollection_3">
    <g clip-path="url(#p818eba233f)">
     <use xlink:href="#m1ab9a60ffd" x="376.524061" y="93.742963" style="fill: #326c99; stroke: #326c99"/>
    </g>
   </g>
   <g id="PathCollection_4">
    <g clip-path="url(#p818eba233f)">
     <use xlink:href="#m1ab9a60ffd" x="426.659418" y="128.833515" style="fill: #326c99; stroke: #326c99"/>
    </g>
   </g>
   <g id="PathCollection_5">
    <g clip-path="url(#p818eba233f)">
     <use xlink:href="#m1ab9a60ffd" x="367.819258" y="163.924066" style="fill: #326c99; stroke: #326c99"/>
    </g>
   </g>
   <g id="text_30">
    <text style="font: 10px 'Times New Roman'; text-anchor: start" x="314.665" y="10.54375" transform="rotate(-0 314.665 10.54375)">(b) Paired differences and 95% intervals</text>
   </g>
  </g>
 </g>
 <defs>
  <clipPath id="p415cd83b36">
   <rect x="39.45625" y="16.54375" width="197.73452" height="154.398426"/>
  </clipPath>
  <clipPath id="p818eba233f">
   <rect x="314.665" y="16.54375" width="197.73452" height="154.398426"/>
  </clipPath>
 </defs>
</svg>
