<?xml version="1.0" encoding="utf-8" standalone="no"?>
<!DOCTYPE svg PUBLIC "-//W3C//DTD SVG 1.1//EN"
  "http://www.w3.org/Graphics/SVG/1.1/DTD/svg11.dtd">
<svg xmlns:xlink="http://www.w3.org/1999/xlink" width="512.39952pt" height="199.19952pt" viewBox="0 0 512.39952 199.19952" xmlns="http://www.w3.org/2000/svg" version="1.1">
 <metadata>
  <rdf:RDF xmlns:dc="http://purl.org/dc/elements/1.1/" xmlns:cc="http://creativecommons.org/ns#" xmlns:rdf="http://www.w3.org/1999/02/22-rdf-syntax-ns#">
   <cc:Work>
    <dc:type rdf:resource="http://purl.org/dc/dcmitype/StillImage"/>
    <dc:date>2026-09-25T17:14:21.323797</dc:date>
    <dc:format>image/svg+xml</dc:format>
    <dc:creator>
     <cc:Agent>
      <dc:title>Matplotlib v3.7.5, https://matplotlib.org/</dc:title>
     </cc:Agent>
    </dc:creator>
   </cc:Work>
  </rdf:RDF>
 </metadata>
 <defs>
  <style type="text/css">*{stroke-linejoin: round; stroke-linecap: butt}</style>
 </defs>
 <g id="figure_1">
  <g id="patch_1">
   <path d="M 0 199.19952
L 512.39952 199.19952
L 512.39952 0
L 0 0
z
" style="fill: #ffffff"/>
  </g>
  <g id="axes_1">
   <g id="patch_2">
    <path d="M 63.190375 172.593645
L 253.19952 172.593645
L 253.19952 13.561406
L 63.190375 13.561406
z
" style="fill: #ffffff"/>
   </g>
   <g id="PathCollection_1">
    <defs>
     <path id="ma35c4cbaee" d="M 0 2.645751
C 0.701661 2.645751 1.374679 2.366978 1.870829 1.870829
C 2.366978 1.374679 2.645751 0.701661 2.645751 0
C 2.645751 -0.701661 2.366978 -1.374679 1.870829 -1.870829
C 1.374679 -2.366978 0.701661 -2.645751 0 -2.645751
C -0.701661 -2.645751 -1.374679 -2.366978 -1.870829 -1.870829
C -2.366978 -1.374679 -2.645751 -0.701661 -2.645751 0
C -2.645751 0.701661 -2.366978 1.374679 -1.870829 1.870829
C -1.374679 2.366978 -0.701661 2.645751 0 2.645751
z
" style="stroke: #65727e; stroke-width: 0.7"/>
    </defs>
    <g clip-path="url(#p450b1e1ac7)">
     <use xlink:href="#ma35c4cbaee" x="77.863611" y="20.790144" style="fill: #65727e; stroke: #65727e; stroke-width: 0.7"/>
    </g>
   </g>
   <g id="PathCollection_2">
    <defs>
     <path id="m15354a3479" d="M 0 2.645751
C 0.701661 2.645751 1.374679 2.366978 1.870829 1.870829
C 2.366978 1.374679 2.645751 0.701661 2.645751 0
C 2.645751 -0.701661 2.366978 -1.374679 1.870829 -1.870829
C 1.374679 -2.366978 0.701661 -2.645751 0 -2.645751
C -0.701661 -2.645751 -1.374679 -2.366978 -1.870829 -1.870829
C -2.366978 -1.374679 -2.645751 -0.701661 -2.645751 0
C -2.645751 0.701661 -2.366978 1.374679 -1.870829 1.870829
C -1.374679 2.366978 -0.701661 2.645751 0 2.645751
z
" style="stroke: #326c99; stroke-width: 0.7"/>
    </defs>
    <g clip-path="url(#p450b1e1ac7)">
     <use xlink:href="#m15354a3479" x="77.863611" y="68.981732" style="fill: #326c99; stroke: #326c99; stroke-width: 0.7"/>
    </g>
   </g>
   <g id="PathCollection_3">
    <defs>
     <path id="m832b318142" d="M 0 2.645751
C 0.701661 2.645751 1.374679 2.366978 1.870829 1.870829
C 2.366978 1.374679 2.645751 0.701661 2.645751 0
C 2.645751 -0.701661 2.366978 -1.374679 1.870829 -1.870829
C 1.374679 -2.366978 0.701661 -2.645751 0 -2.645751
C -0.701661 -2.645751 -1.374679 -2.366978 -1.870829 -1.870829
C -2.366978 -1.374679 -2.645751 -0.701661 -2.645751 0
C -2.645751 0.701661 -2.366978 1.374679 -1.870829 1.870829
C -1.374679 2.366978 -0.701661 2.645751 0 2.645751
z
" style="stroke: #467d64; stroke-width: 0.7"/>
    </defs>
    <g clip-path="url(#p450b1e1ac7)">
     <use xlink:href="#m832b318142" x="77.863611" y="117.173319" style="fill: #467d64; stroke: #467d64; stroke-width: 0.7"/>
    </g>
   </g>
   <g id="PathCollection_4">
    <defs>
     <path id="m7b75bdf889" d="M 0 2.645751
C 0.701661 2.645751 1.374679 2.366978 1.870829 1.870829
C 2.366978 1.374679 2.645751 0.701661 2.645751 0
C 2.645751 -0.701661 2.366978 -1.374679 1.870829 -1.870829
C 1.374679 -2.366978 0.701661 -2.645751 0 -2.645751
C -0.701661 -2.645751 -1.374679 -2.366978 -1.870829 -1.870829
C -2.366978 -1.374679 -2.645751 -0.701661 -2.645751 0
C -2.645751 0.701661 -2.366978 1.374679 -1.870829 1.870829
C -1.374679 2.366978 -0.701661 2.645751 0 2.645751
z
" style="stroke: #b96732; stroke-width: 0.7"/>
    </defs>
    <g clip-path="url(#p450b1e1ac7)">
     <use xlink:href="#m7b75bdf889" x="212.11446" y="165.364907" style="fill: #b96732; stroke: #b96732; stroke-width: 0.7"/>
    </g>
   </g>
   <g id="matplotlib.axis_1">
    <g id="xtick_1">
     <g id="line2d_1">
      <path d="M 86.093044 172.593645
L 86.093044 13.561406
" clip-path="url(#p450b1e1ac7)" style="fill: none; stroke: #b0b0b0; stroke-opacity: 0.2; stroke-width: 0.8; stroke-linecap: square"/>
     </g>
     <g id="line2d_2">
      <defs>
       <path id="mdba8c1bc9d" d="M 0 0
L 0 3.5
" style="stroke: #17212b; stroke-width: 0.6"/>
      </defs>
      <g>
       <use xlink:href="#mdba8c1bc9d" x="86.093044" y="172.593645" style="fill: #17212b; stroke: #17212b; stroke-width: 0.6"/>
      </g>
     </g>
     <g id="text_1">
      <text style="fill: #17212b; font: 7.2px 'Times New Roman', serif; text-anchor: middle" x="86.093044" y="184.593145" transform="rotate(-0 86.093044 184.593145)">85</text>
     </g>
    </g>
    <g id="xtick_2">
     <g id="line2d_3">
      <path d="M 115.439516 172.593645
L 115.439516 13.561406
" clip-path="url(#p450b1e1ac7)" style="fill: none; stroke: #b0b0b0; stroke-opacity: 0.2; stroke-width: 0.8; stroke-linecap: square"/>
     </g>
     <g id="line2d_4">
      <g>
       <use xlink:href="#mdba8c1bc9d" x="115.439516" y="172.593645" style="fill: #17212b; stroke: #17212b; stroke-width: 0.6"/>
      </g>
     </g>
     <g id="text_2">
      <text style="fill: #17212b; font: 7.2px 'Times New Roman', serif; text-anchor: middle" x="115.439516" y="184.593145" transform="rotate(-0 115.439516 184.593145)">86</text>
     </g>
    </g>
    <g id="xtick_3">
     <g id="line2d_5">
      <path d="M 144.785987 172.593645
L 144.785987 13.561406
" clip-path="url(#p450b1e1ac7)" style="fill: none; stroke: #b0b0b0; stroke-opacity: 0.2; stroke-width: 0.8; stroke-linecap: square"/>
     </g>
     <g id="line2d_6">
      <g>
       <use xlink:href="#mdba8c1bc9d" x="144.785987" y="172.593645" style="fill: #17212b; stroke: #17212b; stroke-width: 0.6"/>
      </g>
     </g>
     <g id="text_3">
      <text style="fill: #17212b; font: 7.2px 'Times New Roman', serif; text-anchor: middle" x="144.785987" y="184.593145" transform="rotate(-0 144.785987 184.593145)">87</text>
     </g>
    </g>
    <g id="xtick_4">
     <g id="line2d_7">
      <path d="M 174.132458 172.593645
L 174.132458 13.561406
" clip-path="url(#p450b1e1ac7)" style="fill: none; stroke: #b0b0b0; stroke-opacity: 0.2; stroke-width: 0.8; stroke-linecap: square"/>
     </g>
     <g id="line2d_8">
      <g>
       <use xlink:href="#mdba8c1bc9d" x="174.132458" y="172.593645" style="fill: #17212b; stroke: #17212b; stroke-width: 0.6"/>
      </g>
     </g>
     <g id="text_4">
      <text style="fill: #17212b; font: 7.2px 'Times New Roman', serif; text-anchor: middle" x="174.132458" y="184.593145" transform="rotate(-0 174.132458 184.593145)">88</text>
     </g>
    </g>
    <g id="xtick_5">
     <g id="line2d_9">
      <path d="M 203.47893 172.593645
L 203.47893 13.561406
" clip-path="url(#p450b1e1ac7)" style="fill: none; stroke: #b0b0b0; stroke-opacity: 0.2; stroke-width: 0.8; stroke-linecap: square"/>
     </g>
     <g id="line2d_10">
      <g>
       <use xlink:href="#mdba8c1bc9d" x="203.47893" y="172.593645" style="fill: #17212b; stroke: #17212b; stroke-width: 0.6"/>
      </g>
     </g>
     <g id="text_5">
      <text style="fill: #17212b; font: 7.2px 'Times New Roman', serif; text-anchor: middle" x="203.47893" y="184.593145" transform="rotate(-0 203.47893 184.593145)">89</text>
     </g>
    </g>
    <g id="xtick_6">
     <g id="line2d_11">
      <path d="M 232.825401 172.593645
L 232.825401 13.561406
" clip-path="url(#p450b1e1ac7)" style="fill: none; stroke: #b0b0b0; stroke-opacity: 0.2; stroke-width: 0.8; stroke-linecap: square"/>
     </g>
     <g id="line2d_12">
      <g>
       <use xlink:href="#mdba8c1bc9d" x="232.825401" y="172.593645" style="fill: #17212b; stroke: #17212b; stroke-width: 0.6"/>
      </g>
     </g>
     <g id="text_6">
      <text style="fill: #17212b; font: 7.2px 'Times New Roman', serif; text-anchor: middle" x="232.825401" y="184.593145" transform="rotate(-0 232.825401 184.593145)">90</text>
     </g>
    </g>
    <g id="text_7">
     <text style="fill: #17212b; font: 8px 'Times New Roman', serif; text-anchor: middle" x="158.194947" y="195.68827" transform="rotate(-0 158.194947 195.68827)">Mean document F1 (%)</text>
    </g>
   </g>
   <g id="matplotlib.axis_2">
    <g id="ytick_1">
     <g id="line2d_13">
      <defs>
       <path id="m570983319a" d="M 0 0
L -3.5 0
" style="stroke: #17212b; stroke-width: 0.6"/>
      </defs>
      <g>
       <use xlink:href="#m570983319a" x="63.190375" y="20.790144" style="fill: #17212b; stroke: #17212b; stroke-width: 0.6"/>
      </g>
     </g>
     <g id="text_8">
      <text style="fill: #17212b; font: 7.2px 'Times New Roman', serif; text-anchor: end" x="56.190375" y="23.289894" transform="rotate(-0 56.190375 23.289894)">Uniform / absolute</text>
     </g>
    </g>
    <g id="ytick_2">
     <g id="line2d_14">
      <g>
       <use xlink:href="#m570983319a" x="63.190375" y="68.981732" style="fill: #17212b; stroke: #17212b; stroke-width: 0.6"/>
      </g>
     </g>
     <g id="text_9">
      <text style="fill: #17212b; font: 7.2px 'Times New Roman', serif; text-anchor: end" x="56.190375" y="71.481482" transform="rotate(-0 56.190375 71.481482)">Uniform / relative</text>
     </g>
    </g>
    <g id="ytick_3">
     <g id="line2d_15">
      <g>
       <use xlink:href="#m570983319a" x="63.190375" y="117.173319" style="fill: #17212b; stroke: #17212b; stroke-width: 0.6"/>
      </g>
     </g>
     <g id="text_10">
      <text style="fill: #17212b; font: 7.2px 'Times New Roman', serif; text-anchor: end" x="56.190375" y="119.673069" transform="rotate(-0 56.190375 119.673069)">Learned / absolute</text>
     </g>
    </g>
    <g id="ytick_4">
     <g id="line2d_16">
      <g>
       <use xlink:href="#m570983319a" x="63.190375" y="165.364907" style="fill: #17212b; stroke: #17212b; stroke-width: 0.6"/>
      </g>
     </g>
     <g id="text_11">
      <text style="fill: #17212b; font: 7.2px 'Times New Roman', serif; text-anchor: end" x="56.190375" y="167.864657" transform="rotate(-0 56.190375 167.864657)">Learned / relative</text>
     </g>
    </g>
   </g>
   <g id="patch_3">
    <path d="M 63.190375 172.593645
L 63.190375 13.561406
" style="fill: none; stroke: #17212b; stroke-width: 0.7; stroke-linejoin: miter; stroke-linecap: square"/>
   </g>
   <g id="patch_4">
    <path d="M 253.19952 172.593645
L 253.19952 13.561406
" style="fill: none; stroke: #17212b; stroke-width: 0.7; stroke-linejoin: miter; stroke-linecap: square"/>
   </g>
   <g id="patch_5">
    <path d="M 63.190375 172.593645
L 253.19952 172.593645
" style="fill: none; stroke: #17212b; stroke-width: 0.7; stroke-linejoin: miter; stroke-linecap: square"/>
   </g>
   <g id="patch_6">
    <path d="M 63.190375 13.561406
L 253.19952 13.561406
" style="fill: none; stroke: #17212b; stroke-width: 0.7; stroke-linejoin: miter; stroke-linecap: square"/>
   </g>
   <g id="text_12">
    <text style="fill: #17212b; font: 7px 'Times New Roman', serif; text-anchor: start" x="81.863611" y="22.471785" transform="rotate(-0 81.863611 22.471785)"> 84.72</text>
   </g>
   <g id="text_13">
    <text style="fill: #17212b; font: 7px 'Times New Roman', serif; text-anchor: start" x="81.863611" y="70.663373" transform="rotate(-0 81.863611 70.663373)"> 84.72</text>
   </g>
   <g id="text_14">
    <text style="fill: #17212b; font: 7px 'Times New Roman', serif; text-anchor: start" x="81.863611" y="118.85496" transform="rotate(-0 81.863611 118.85496)"> 84.72</text>
   </g>
   <g id="text_15">
    <text style="fill: #17212b; font: 7px 'Times New Roman', serif; text-anchor: start" x="216.11446" y="167.046548" transform="rotate(-0 216.11446 167.046548)"> 89.29</text>
   </g>
   <g id="text_16">
    <text style="fill: #17212b; font: 700 8.5px 'Times New Roman', serif; text-anchor: start" x="63.190375" y="7.561406" transform="rotate(-0 63.190375 7.561406)">(a) Controlled defects</text>
   </g>
  </g>
  <g id="axes_2">
   <g id="patch_7">
    <path d="M 320.590375 172.593645
L 510.59952 172.593645
L 510.59952 13.561406
L 320.590375 13.561406
z
" style="fill: #ffffff"/>
   </g>
   <g id="PathCollection_5">
    <g clip-path="url(#pca3d971fc6)">
     <use xlink:href="#ma35c4cbaee" x="407.921753" y="20.790144" style="fill: #65727e; stroke: #65727e; stroke-width: 0.7"/>
    </g>
   </g>
   <g id="PathCollection_6">
    <g clip-path="url(#pca3d971fc6)">
     <use xlink:href="#m15354a3479" x="407.921753" y="68.981732" style="fill: #326c99; stroke: #326c99; stroke-width: 0.7"/>
    </g>
   </g>
   <g id="PathCollection_7">
    <g clip-path="url(#pca3d971fc6)">
     <use xlink:href="#m832b318142" x="383.474666" y="117.173319" style="fill: #467d64; stroke: #467d64; stroke-width: 0.7"/>
    </g>
   </g>
   <g id="PathCollection_8">
    <g clip-path="url(#pca3d971fc6)">
     <use xlink:href="#m7b75bdf889" x="357.261006" y="165.364907" style="fill: #b96732; stroke: #b96732; stroke-width: 0.7"/>
    </g>
   </g>
   <g id="matplotlib.axis_3">
    <g id="xtick_7">
     <g id="line2d_17">
      <path d="M 347.216507 172.593645
L 347.216507 13.561406
" clip-path="url(#pca3d971fc6)" style="fill: none; stroke: #b0b0b0; stroke-opacity: 0.2; stroke-width: 0.8; stroke-linecap: square"/>
     </g>
     <g id="line2d_18">
      <g>
       <use xlink:href="#mdba8c1bc9d" x="347.216507" y="172.593645" style="fill: #17212b; stroke: #17212b; stroke-width: 0.6"/>
      </g>
     </g>
     <g id="text_17">
      <text style="fill: #17212b; font: 7.2px 'Times New Roman', serif; text-anchor: middle" x="347.216507" y="184.593145" transform="rotate(-0 347.216507 184.593145)">87.5</text>
     </g>
    </g>
    <g id="xtick_8">
     <g id="line2d_19">
      <path d="M 383.887138 172.593645
L 383.887138 13.561406
" clip-path="url(#pca3d971fc6)" style="fill: none; stroke: #b0b0b0; stroke-opacity: 0.2; stroke-width: 0.8; stroke-linecap: square"/>
     </g>
     <g id="line2d_20">
      <g>
       <use xlink:href="#mdba8c1bc9d" x="383.887138" y="172.593645" style="fill: #17212b; stroke: #17212b; stroke-width: 0.6"/>
      </g>
     </g>
     <g id="text_18">
      <text style="fill: #17212b; font: 7.2px 'Times New Roman', serif; text-anchor: middle" x="383.887138" y="184.593145" transform="rotate(-0 383.887138 184.593145)">88.0</text>
     </g>
    </g>
    <g id="xtick_9">
     <g id="line2d_21">
      <path d="M 420.557769 172.593645
L 420.557769 13.561406
" clip-path="url(#pca3d971fc6)" style="fill: none; stroke: #b0b0b0; stroke-opacity: 0.2; stroke-width: 0.8; stroke-linecap: square"/>
     </g>
     <g id="line2d_22">
      <g>
       <use xlink:href="#mdba8c1bc9d" x="420.557769" y="172.593645" style="fill: #17212b; stroke: #17212b; stroke-width: 0.6"/>
      </g>
     </g>
     <g id="text_19">
      <text style="fill: #17212b; font: 7.2px 'Times New Roman', serif; text-anchor: middle" x="420.557769" y="184.593145" transform="rotate(-0 420.557769 184.593145)">88.5</text>
     </g>
    </g>
    <g id="xtick_10">
     <g id="line2d_23">
      <path d="M 457.2284 172.593645
L 457.2284 13.561406
" clip-path="url(#pca3d971fc6)" style="fill: none; stroke: #b0b0b0; stroke-opacity: 0.2; stroke-width: 0.8; stroke-linecap: square"/>
     </g>
     <g id="line2d_24">
      <g>
       <use xlink:href="#mdba8c1bc9d" x="457.2284" y="172.593645" style="fill: #17212b; stroke: #17212b; stroke-width: 0.6"/>
      </g>
     </g>
     <g id="text_20">
      <text style="fill: #17212b; font: 7.2px 'Times New Roman', serif; text-anchor: middle" x="457.2284" y="184.593145" transform="rotate(-0 457.2284 184.593145)">89.0</text>
     </g>
    </g>
    <g id="xtick_11">
     <g id="line2d_25">
      <path d="M 493.899031 172.593645
L 493.899031 13.561406
" clip-path="url(#pca3d971fc6)" style="fill: none; stroke: #b0b0b0; stroke-opacity: 0.2; stroke-width: 0.8; stroke-linecap: square"/>
     </g>
     <g id="line2d_26">
      <g>
       <use xlink:href="#mdba8c1bc9d" x="493.899031" y="172.593645" style="fill: #17212b; stroke: #17212b; stroke-width: 0.6"/>
      </g>
     </g>
     <g id="text_21">
      <text style="fill: #17212b; font: 7.2px 'Times New Roman', serif; text-anchor: middle" x="493.899031" y="184.593145" transform="rotate(-0 493.899031 184.593145)">89.5</text>
     </g>
    </g>
    <g id="text_22">
     <text style="fill: #17212b; font: 8px 'Times New Roman', serif; text-anchor: middle" x="415.594947" y="195.68827" transform="rotate(-0 415.594947 195.68827)">Mean document F1 (%)</text>
    </g>
   </g>
   <g id="matplotlib.axis_4">
    <g id="ytick_5">
     <g id="line2d_27">
      <g>
       <use xlink:href="#m570983319a" x="320.590375" y="20.790144" style="fill: #17212b; stroke: #17212b; stroke-width: 0.6"/>
      </g>
     </g>
     <g id="text_23">
      <text style="fill: #17212b; font: 7.2px 'Times New Roman', serif; text-anchor: end" x="313.590375" y="23.289894" transform="rotate(-0 313.590375 23.289894)">Uniform / absolute</text>
     </g>
    </g>
    <g id="ytick_6">
     <g id="line2d_28">
      <g>
       <use xlink:href="#m570983319a" x="320.590375" y="68.981732" style="fill: #17212b; stroke: #17212b; stroke-width: 0.6"/>
      </g>
     </g>
     <g id="text_24">
      <text style="fill: #17212b; font: 7.2px 'Times New Roman', serif; text-anchor: end" x="313.590375" y="71.481482" transform="rotate(-0 313.590375 71.481482)">Uniform / relative</text>
     </g>
    </g>
    <g id="ytick_7">
     <g id="line2d_29">
      <g>
       <use xlink:href="#m570983319a" x="320.590375" y="117.173319" style="fill: #17212b; stroke: #17212b; stroke-width: 0.6"/>
      </g>
     </g>
     <g id="text_25">
      <text style="fill: #17212b; font: 7.2px 'Times New Roman', serif; text-anchor: end" x="313.590375" y="119.673069" transform="rotate(-0 313.590375 119.673069)">Learned / absolute</text>
     </g>
    </g>
    <g id="ytick_8">
     <g id="line2d_30">
      <g>
       <use xlink:href="#m570983319a" x="320.590375" y="165.364907" style="fill: #17212b; stroke: #17212b; stroke-width: 0.6"/>
      </g>
     </g>
     <g id="text_26">
      <text style="fill: #17212b; font: 7.2px 'Times New Roman', serif; text-anchor: end" x="313.590375" y="167.864657" transform="rotate(-0 313.590375 167.864657)">Learned / relative</text>
     </g>
    </g>
   </g>
   <g id="patch_8">
    <path d="M 320.590375 172.593645
L 320.590375 13.561406
" style="fill: none; stroke: #17212b; stroke-width: 0.7; stroke-linejoin: miter; stroke-linecap: square"/>
   </g>
   <g id="patch_9">
    <path d="M 510.59952 172.593645
L 510.59952 13.561406
" style="fill: none; stroke: #17212b; stroke-width: 0.7; stroke-linejoin: miter; stroke-linecap: square"/>
   </g>
   <g id="patch_10">
    <path d="M 320.590375 172.593645
L 510.59952 172.593645
" style="fill: none; stroke: #17212b; stroke-width: 0.7; stroke-linejoin: miter; stroke-linecap: square"/>
   </g>
   <g id="patch_11">
    <path d="M 320.590375 13.561406
L 510.59952 13.561406
" style="fill: none; stroke: #17212b; stroke-width: 0.7; stroke-linejoin: miter; stroke-linecap: square"/>
   </g>
   <g id="text_27">
    <text style="fill: #17212b; font: 7px 'Times New Roman', serif; text-anchor: start" x="411.921753" y="22.471785" transform="rotate(-0 411.921753 22.471785)"> 88.33</text>
   </g>
   <g id="text_28">
    <text style="fill: #17212b; font: 7px 'Times New Roman', serif; text-anchor: start" x="411.921753" y="70.663373" transform="rotate(-0 411.921753 70.663373)"> 88.33</text>
   </g>
   <g id="text_29">
    <text style="fill: #17212b; font: 7px 'Times New Roman', serif; text-anchor: start" x="387.474666" y="118.85496" transform="rotate(-0 387.474666 118.85496)"> 87.99</text>
   </g>
   <g id="text_30">
    <text style="fill: #17212b; font: 7px 'Times New Roman', serif; text-anchor: start" x="361.261006" y="167.046548" transform="rotate(-0 361.261006 167.046548)"> 87.64</text>
   </g>
   <g id="text_31">
    <text style="fill: #17212b; font: 700 8.5px 'Times New Roman', serif; text-anchor: start" x="320.590375" y="7.561406" transform="rotate(-0 320.590375 7.561406)">(b) Natural extraction inputs</text>
   </g>
  </g>
 </g>
 <defs>
  <clipPath id="p450b1e1ac7">
   <rect x="63.190375" y="13.561406" width="190.009145" height="159.032239"/>
  </clipPath>
  <clipPath id="pca3d971fc6">
   <rect x="320.590375" y="13.561406" width="190.009145" height="159.032239"/>
  </clipPath>
 </defs>
</svg>
